<?xml version="1.0" encoding="UTF-8" standalone="no"?>
<!-- Created with Inkscape (http://www.inkscape.org/) -->

<svg
   xmlns:dc="http://purl.org/dc/elements/1.1/"
   xmlns:cc="http://creativecommons.org/ns#"
   xmlns:rdf="http://www.w3.org/1999/02/22-rdf-syntax-ns#"
   xmlns:svg="http://www.w3.org/2000/svg"
   xmlns="http://www.w3.org/2000/svg"
   xmlns:xlink="http://www.w3.org/1999/xlink"
   xmlns:sodipodi="http://sodipodi.sourceforge.net/DTD/sodipodi-0.dtd"
   xmlns:inkscape="http://www.inkscape.org/namespaces/inkscape"
   width="247.86771mm"
   height="250.78665mm"
   viewBox="0 0 247.86771 250.78665"
   version="1.1"
   id="svg848"
   inkscape:version="0.92.2 2405546, 2018-03-11"
   sodipodi:docname="ppp-logo.svg"
   inkscape:export-filename="/home/make/Hacking/plantain-project-pdx/gatsby-universal/src/images/icon.png"
   inkscape:export-xdpi="51.85603"
   inkscape:export-ydpi="51.85603">
  <defs
     id="defs842">
    <linearGradient
       inkscape:collect="always"
       id="linearGradient5121">
      <stop
         style="stop-color:#73aa1b;stop-opacity:1;"
         offset="0"
         id="stop5117" />
      <stop
         style="stop-color:#20410a;stop-opacity:1"
         offset="1"
         id="stop5119" />
    </linearGradient>
    <linearGradient
       inkscape:collect="always"
       xlink:href="#linearGradient5121"
       id="linearGradient5144"
       gradientUnits="userSpaceOnUse"
       x1="83.221031"
       y1="86.321945"
       x2="128.65686"
       y2="339.48096" />
  </defs>
  <sodipodi:namedview
     id="base"
     pagecolor="#ffffff"
     bordercolor="#666666"
     borderopacity="1.0"
     inkscape:pageopacity="0.0"
     inkscape:pageshadow="2"
     inkscape:zoom="0.9713683"
     inkscape:cx="468.41141"
     inkscape:cy="653.54724"
     inkscape:document-units="mm"
     inkscape:current-layer="layer1"
     showgrid="false"
     inkscape:window-width="1920"
     inkscape:window-height="1017"
     inkscape:window-x="0"
     inkscape:window-y="28"
     inkscape:window-maximized="1" />
  <metadata
     id="metadata845">
    <rdf:RDF>
      <cc:Work
         rdf:about="">
        <dc:format>image/svg+xml</dc:format>
        <dc:type
           rdf:resource="http://purl.org/dc/dcmitype/StillImage" />
        <dc:title></dc:title>
      </cc:Work>
    </rdf:RDF>
  </metadata>
  <g
     inkscape:label="Layer 1"
     inkscape:groupmode="layer"
     id="layer1"
     transform="translate(14.267782,-84.157751)">
    <path
       style="fill:#20410a;fill-opacity:1;stroke:url(#linearGradient5144);stroke-width:0.26458332;stroke-opacity:0.94117647"
       d="m 35.077635,334.60617 c -1.09326,-0.23545 -1.24656,-4.5257 -0.19492,-5.45499 0.47707,-0.42156 0.65497,-0.9865 0.87495,-2.77813 0.15187,-1.23693 0.39618,-2.72521 0.54292,-3.30729 0.14677,-0.58208 0.29882,-1.35599 0.3379,-1.71979 0.0851,-0.79224 0.71147,-2.67708 1.00669,-3.02948 0.11581,-0.13825 0.21339,-0.55496 0.2168,-0.92604 0.0135,-1.46939 1.79742,-7.0326 2.62993,-8.20172 0.29636,-0.41621 0.53885,-0.88307 0.53885,-1.03743 0,-0.15438 0.35719,-0.68749 0.79375,-1.18472 0.43656,-0.49721 0.79375,-0.98859 0.79375,-1.09194 0,-0.10337 0.235,-0.48667 0.52221,-0.85182 0.2872,-0.36513 0.60206,-1.0895 0.69966,-1.60973 0.29128,-1.55268 4.29858,-6.62403 5.91315,-7.48326 0.51411,-0.27358 1.82774,-1.33088 2.91915,-2.34953 1.0914,-1.01864 2.09111,-1.8556 2.22157,-1.85989 0.327,-0.0108 2.7963,-1.67944 3.57854,-2.41829 0.74862,-0.70707 0.20932,-0.98224 -2.09595,-1.0695 -0.65484,-0.0249 -1.36921,-0.13229 -1.5875,-0.23886 -0.21828,-0.1066 -1.05171,-0.32454 -1.85208,-0.48432 -0.80036,-0.15978 -1.6338,-0.34446 -1.85208,-0.4104 -0.21828,-0.066 -0.80079,-0.24204 -1.29445,-0.39132 -0.49366,-0.1493 -0.99251,-0.21275 -1.10858,-0.14102 -0.11604,0.0717 -0.6051,-0.10988 -1.0868,-0.40354 -0.4817,-0.29369 -1.17345,-0.53451 -1.53726,-0.53517 -1.11299,-0.003 -4.50654,-0.78809 -5.11479,-1.18476 -0.31557,-0.20579 -1.52625,-0.5639 -2.69041,-0.79578 -1.16417,-0.23188 -2.77151,-0.70308 -3.57188,-1.04709 -0.80036,-0.34404 -1.87193,-0.71104 -2.38125,-0.81555 -0.50932,-0.10454 -1.69735,-0.59733 -2.64004,-1.09511 -0.94271,-0.49779 -1.91508,-0.93576 -2.1608,-0.97325 -0.63632,-0.0971 -3.13666,-1.68978 -3.13666,-1.998 0,-0.25297 -1.01489,-0.7081 -1.37295,-0.61571 -0.10028,0.0259 -0.25395,-0.1787 -0.34152,-0.45463 -0.0876,-0.27591 -0.51155,-0.6245 -0.94218,-0.7746 -0.43061,-0.15012 -0.78293,-0.38946 -0.78293,-0.53189 0,-0.14242 -0.16571,-0.29744 -0.36822,-0.34449 -0.40188,-0.0934 -4.76856,-4.0726 -6.736671,-6.13891 -1.668109,-1.75136 -5.4511994,-5.64632 -10.2349994,-10.53767 -2.18816,-2.23734 -4.17459995,-4.47979 -4.41433995,-4.98321 -0.23971005,-0.50345 -0.65206005,-1.15345 -0.91633005,-1.4445 -0.46659,-0.51387 -2.46486,-5.1639 -2.46486,-5.73582 0,-0.59298 -1.8717701,-4.09064 -2.6375401,-4.92858 -0.4397,-0.48114 -0.86883,-1.19552 -0.95362,-1.5875 -0.0848,-0.39198 -0.25183,-0.9508 -0.3712,-1.24185 -1.26994,-3.09652 -1.70355,-3.96205 -2.3858695,-4.7625 -0.24808,-0.29104 -0.72582,-1.12448 -1.06164,-1.85208 -0.33583,-0.7276 -1.00864,-1.81922 -1.49515,-2.42578 -1.83796,-2.29156 -0.99957,-4.9784 1.06262,-3.4055 0.51405,0.39208 1.06098,0.59679 1.37507,0.51466 0.36653,-0.0959 0.8841595,0.21109 1.7417095,1.03275 1.47921,1.41735 3.80347,2.98799 4.7821601,3.23162 0.39492,0.0983 1.48916,0.88535 2.43166,1.74898 1.40546005,1.28786 1.83007005,1.54098 2.36127005,1.40766 0.53051995,-0.13316 0.79922995,0.0259 1.48563995,0.88016 0.46087,0.57351 1.15876,1.20798 1.5509,1.40991 0.39212,0.20196 0.7724801,0.43106 0.8452401,0.50912 0.0728,0.0781 1.02526,0.57951 2.1166699,1.11432 2.67515,1.31085 4.5011704,2.37339 6.1578804,3.58319 0.760519,0.55534 1.858989,1.16573 2.441079,1.35642 0.582081,0.19071 2.189421,1.08492 3.571871,1.98718 2.51243,1.63973 3.0249,1.91502 4.7625,2.55823 0.50932,0.18854 1.23685,0.56785 1.61671,0.84291 0.43315,0.31363 1.66627,0.64185 3.30729,0.88032 1.43915,0.2091 2.94709,0.51236 3.35098,0.67389 0.5952,0.23805 0.82362,0.21291 1.20549,-0.13266 0.42146,-0.38142 0.51348,-0.38399 0.87318,-0.0243 0.29303,0.29302 1.22161,0.44056 3.42471,0.54414 1.66249,0.0781 3.37987,0.24903 3.81643,0.37978 0.43656,0.13073 2.28203,0.47636 4.10104,0.76804 1.81901,0.29167 3.72322,0.6518 4.23159,0.80025 1.96723,0.57447 2.0528,0.26628 0.39862,-1.43576 -0.65484,-0.67379 -1.19062,-1.33363 -1.19062,-1.46632 0,-0.13271 -0.15793,-0.3365 -0.35095,-0.45289 -0.49543,-0.29868 -3.35322,-4.16332 -3.35322,-4.53461 0,-0.16894 -0.098,-0.30715 -0.2177,-0.30715 -0.11972,0 -0.47075,-0.50673 -0.78004,-1.12604 -0.3093,-0.61932 -0.7769,-1.36795 -1.03907,-1.66363 -0.94909,-1.07021 -3.42382,-4.74125 -4.09456,-6.07388 -1.09284,-2.17127 -1.5965,-2.98645 -2.36398,-3.826 -0.46035,-0.50359 -1.30863,-1.81116 -1.8851,-2.90574 -0.57647,-1.0946 -1.30445,-2.34878 -1.61772,-2.78712 -0.88519,-1.23859 -4.66735,-8.94096 -4.66907,-9.50851 0,-0.27861 -0.41823,-1.38446 -0.92755,-2.45751 -0.50932,-1.07302 -0.92604,-2.00242 -0.92604,-2.06531 0,-0.0629 -0.29766,-0.76509 -0.66146,-1.56043 -0.3638,-0.79537 -0.66146,-1.63232 -0.66146,-1.85994 0,-0.2276 -0.11906,-0.41381 -0.26458,-0.41381 -0.14552,0 -0.26459,-0.24289 -0.26459,-0.53972 0,-0.29684 -0.2218,-0.98145 -0.49289,-1.52136 -0.27109,-0.53991 -0.69985,-1.63647 -0.95279,-2.43684 -0.49731,-1.57358 -1.20295,-3.10843 -2.00713,-4.36562 -0.27927,-0.43657 -0.94099,-1.68672 -1.47055,-2.77813 -0.52954,-1.0914 -1.12192,-2.07692 -1.31638,-2.19001 -0.19445,-0.11311 -0.43038,-0.61505 -0.52425,-1.11545 -0.0994,-0.52999 -0.36473,-0.97142 -0.63545,-1.05736 -0.68508,-0.21743 -3.451651,-3.82717 -3.429131,-4.47421 0.0573,-1.64645 2.314281,-3.14684 2.735821,-1.81869 0.13052,0.41127 2.71721,3.02292 5.8438,5.90013 0.43656,0.40174 1.50812,1.09241 2.38125,1.53482 0.87312,0.44241 2.24234,1.34922 3.0427,2.01509 0.80037,0.66588 1.69151,1.28601 1.98036,1.37803 0.28882,0.092 1.13535,0.61809 1.88116,1.16906 0.74581,0.55097 1.76437,1.17237 2.26346,1.38092 0.49911,0.20854 1.08135,0.54493 1.29383,0.74755 0.21252,0.20262 1.01148,0.65622 1.77546,1.00801 0.76399,0.35182 1.38907,0.71588 1.38907,0.8091 0,0.0932 1.04179,0.74718 2.3151,1.4533 1.27331,0.70615 2.67229,1.54765 3.10886,1.87007 0.43656,0.32243 1.32953,0.84146 1.98437,1.15343 0.65484,0.31197 1.66688,0.85182 2.24896,1.19965 1.50082,0.8968 2.35836,0.97165 2.46578,0.21521 0.0651,-0.45834 -0.0458,-0.59531 -0.48191,-0.59531 -0.98428,0 -2.06788,-1.7743 -1.68809,-2.76405 0.16859,-0.43934 1.16781,-0.2149 1.61403,0.36255 0.28549,0.36947 0.32542,0.35666 0.34957,-0.11205 0.10695,-2.0775 0.30022,-4.22023 0.51306,-5.68854 0.1371,-0.94588 0.2414,-2.4937 0.23174,-3.43958 -0.0122,-1.18658 0.16264,-2.17099 0.56359,-3.175 0.81984,-2.05296 1.34546,-3.63649 1.29022,-3.88702 -0.0482,-0.21831 -0.008,-0.36163 0.52586,-1.86767 0.80425,-2.26972 0.93831,-2.63326 1.24404,-3.37343 0.18031,-0.43657 0.44731,-1.09141 0.5933,-1.45521 0.14603,-0.3638 0.45908,-1.10223 0.6957,-1.64092 0.23661,-0.53872 0.48546,-1.43169 0.55295,-1.98438 0.27911,-2.28565 0.66437,-4.3131 1.02672,-5.40303 0.21177,-0.63698 0.51903,-1.69391 0.68281,-2.34876 0.1638,-0.65484 0.3692,-1.36921 0.45646,-1.5875 0.0873,-0.21828 0.18174,-0.81359 0.21,-1.32291 0.0282,-0.50933 0.19674,-1.93808 0.37446,-3.175 0.4051,-2.81958 0.42791,-4.14403 0.0786,-4.56551 -0.1501,-0.18111 -0.31298,-1.32281 -0.36192,-2.53712 -0.0489,-1.2143 -0.17143,-2.25885 -0.27215,-2.32126 -0.10076,-0.0624 -0.26332,-0.64792 -0.36127,-1.30117 -0.098,-0.65323 -0.27209,-1.24579 -0.38698,-1.31678 -0.11488,-0.071 -0.14515,-0.60418 -0.0673,-1.18486 0.0796,-0.5937 0.0148,-1.20851 -0.14811,-1.4048 -1.78882,-2.15541 0.18211,-3.85861 2.23568,-1.93202 0.83724,0.7855 1.67613,1.36914 1.86417,1.29699 0.18812,-0.0722 0.47369,0.15806 0.63495,0.51197 0.18746,0.41145 0.73972,0.80378 1.53297,1.08902 0.68196,0.24525 1.38464,0.6776 1.56149,0.96079 0.17687,0.28321 0.96589,0.81973 1.75339,1.19229 0.78748,0.37253 1.57763,0.85307 1.75588,1.0678 0.17823,0.21476 0.47202,0.3905 0.65286,0.3905 0.18085,0 0.63799,0.24321 1.01587,0.54047 0.37791,0.29723 1.01904,0.58647 1.42476,0.64269 0.40571,0.0563 1.2379,0.34881 1.84935,0.65017 0.61143,0.30136 1.23651,0.54792 1.38907,0.54792 0.15253,0 0.27736,0.0989 0.27736,0.21987 0,0.12091 0.32742,0.38881 0.7276,0.59531 0.83577,0.43125 1.94411,1.3639 4.02519,3.38712 0.80571,0.7833 1.87894,1.59987 2.38501,1.81463 1.17498,0.49861 3.21495,1.8864 3.64376,2.47883 0.30969,0.42786 1.94437,1.5584 2.25332,1.5584 0.077,0 0.1251,-1.10133 0.10676,-2.4474 -0.0391,-2.86992 0.28263,-6.79899 0.58928,-7.19644 0.37066,-0.48041 0.76081,-2.4588 0.625,-3.16924 -0.0716,-0.37435 -0.0164,-0.68066 0.12269,-0.68066 0.13903,0 0.40134,-1.0418 0.5829,-2.31511 0.18158,-1.2733 0.43889,-2.88652 0.57182,-3.58492 0.13292,-0.69836 0.24167,-2.14913 0.24167,-3.22392 0,-1.07476 0.12393,-2.28004 0.27538,-2.67843 0.15144,-0.39835 0.1878,-0.91212 0.0808,-1.1417 -0.10703,-0.22955 -0.21791,-1.07222 -0.24638,-1.87259 -0.12901,-3.62664 -0.37513,-8.54847 -0.54248,-10.84792 -0.10059,-1.38244 -0.19611,-3.49898 -0.21222,-4.70339 -0.029,-2.16836 -0.55983,-3.09004 -1.68857,-2.93206 -0.58275,0.0815 -0.84148,-0.10263 -0.84148,-0.59904 0,-0.46916 0.0653,-0.50737 0.39687,-0.23217 0.22138,0.18372 0.39688,0.21238 0.39688,0.0648 0,-0.35931 -0.52576,-0.75324 -1.32292,-0.99126 -0.75869,-0.22654 -1.47407,-0.90795 -1.8674,-1.77869 -0.1496,-0.33118 -0.44371,-0.89977 -0.6536,-1.26357 -0.543,-0.9412 -0.48339,-1.93069 0.13975,-2.31987 0.7135,-0.44558 0.68382,-0.54925 -0.53247,-1.85883 -1.40391,-1.51162 -1.33239,-3.49422 0.12602,-3.49422 0.36891,0 0.29332,-0.19129 -0.37761,-0.95543 -1.28532,-1.46392 -1.47069,-2.17078 -0.76595,-2.92095 0.4803,-0.51126 0.50753,-0.62153 0.15338,-0.62153 -1.67341,0 -2.73537,-1.95422 -1.95323,-3.594375 0.4014,-0.84172 0.39928,-0.84727 -0.63487,-1.67833 -1.70754,-1.37224 -1.63142,-3.1332 0.21286,-4.92435 0.94263,-0.91545 0.94263,-0.91545 0.25781,-0.91545 -1.84081,0 -2.64292,-0.99137 -1.94083,-2.3988 0.27448,-0.5502 0.32968,-0.99991 0.17317,-1.41147 -0.24127,-0.63463 -0.1701,-2.33114 0.11732,-2.79617 0.28676,-0.464 1.07852,-0.30266 1.87547,0.38211 0.49509,0.42545 0.85249,0.56449 1.0201,0.39688 1.04646,-1.04646 2.95675,0.63881 2.2188,1.95746 -0.27887,0.49835 -0.0418,1.04754 0.34817,0.80653 1.10436,-0.68254 2.39868,1.27561 2.3075,3.49097 -0.0921,2.23777 -0.0921,2.23777 0.94137,2.82334 2.70181,1.53093 2.30362,4.44302 -0.84244,6.160595 -0.0404,0.022 0.0506,0.36679 0.20241,0.76599 0.34647,0.91128 1.24436,0.76502 2.59757,-0.42312 0.50954,-0.44738 1.07294,-0.72782 1.29281,-0.64344 0.21431,0.0822 0.499,0.14954 0.63262,0.14954 0.81936,0 0.0524,2.13048 -1.12305,3.11955 -1.29818,1.09233 -1.87995,2.70129 -0.97677,2.70129 2.52405,0 3.12786,3.27011 0.88575,4.797 -1.32448,0.90196 -1.28492,2.50404 0.0404,1.63565 1.65106,-1.0818 4.26117,1.11958 3.61625,3.04996 -0.42005,1.25735 -1.25272,2.73624 -1.72808,3.06916 -0.65069,0.4558 -0.49434,1.84119 0.37505,3.32322 0.63508,1.08257 0.68255,1.68426 0.89752,11.37709 0.0855,3.8563 0.19947,8.73786 0.25323,10.84791 0.0538,2.11006 0.0989,4.22302 0.10028,4.69551 0.003,1.10808 -1.17049,6.54209 -1.9576,9.06283 -0.37841,1.21182 -0.58179,2.90851 -0.81669,6.81243 -0.1339,2.22572 0.14272,3.27474 1.12165,4.2537 0.23717,0.23715 0.31816,0.64162 0.21894,1.09334 -0.14128,0.64328 0.0816,0.92517 2.16898,2.74352 1.27955,1.11461 2.63006,2.35482 3.00117,2.75606 1.532225,1.65658 5.013815,5.85044 5.013815,6.03951 0,0.11205 0.64699,0.80859 1.43778,1.54789 0.79076,0.73927 2.01115,2.14429 2.71198,3.12221 0.7008,0.97793 1.63139,2.27632 2.06795,2.88531 0.43657,0.60899 0.95798,1.41621 1.15872,1.79382 0.20074,0.37762 0.57375,0.9247 0.82894,1.21574 0.25519,0.29104 0.67313,0.94588 0.92871,1.45521 0.25562,0.50932 0.54372,0.98557 0.64024,1.05833 0.0965,0.0728 0.43326,0.55684 0.7483,1.07572 1.8411,3.03244 3.16918,1.67581 1.66446,-1.70024 -0.62415,-1.40039 -0.77441,-1.83515 -1.24724,-3.60881 -0.51824,-1.94392 -1.13017,-7.93255 -0.87935,-8.60531 0.10983,-0.29453 0.45665,-2.43766 0.77074,-4.7625 0.31406,-2.32484 0.75237,-4.84357 0.97401,-5.59716 0.22161,-0.75361 0.396,-2.30142 0.38748,-3.43958 -0.022,-2.92986 0.0898,-3.98547 0.59584,-5.62933 0.24434,-0.79377 0.38754,-1.80579 0.31819,-2.24894 -0.34094,-2.17914 -0.37468,-3.14942 -0.12568,-3.61464 0.14991,-0.28011 0.20606,-0.61693 0.12478,-0.74842 -0.0813,-0.13153 -0.21087,-2.0043 -0.288,-4.16174 -0.0771,-2.15741 -0.18516,-5.17274 -0.24006,-6.70071 -0.0549,-1.52796 -0.18229,-2.98801 -0.28302,-3.24453 -0.10073,-0.25651 -0.0362,-0.64346 0.14346,-0.85989 0.27945,-0.33674 0.17872,-0.39376 -0.69803,-0.39532 -1.57869,-0.003 -2.82951,-2.0896 -2.09751,-3.49943 0.21818,-0.42021 0.27215,-0.78695 0.12888,-0.87551 -0.34168,-0.21119 -0.31128,-3.48951 0.0343,-3.70313 0.74623,-0.4612 0.78256,-1.46635 0.0973,-2.6937 -0.44389,-0.79507 -0.62502,-1.43216 -0.52289,-1.83906 0.12292,-0.48983 0.013,-0.68784 -0.5156,-0.92869 -2.08309,-0.94911 -2.67104,-4.7149 -0.73612,-4.7149 0.39272,0 0.24887,-0.93925 -0.22087,-1.44198 -0.12917,-0.13825 -0.23485,-0.51647 -0.23485,-0.8405 0,-0.43678 -0.37632,-0.80442 -1.45521,-1.42169 -2.00207,-1.14549 -2.13947,-2.82363 -0.37039,-4.52339 1.32059,-1.26881 1.23632,-1.82661 -0.27598,-1.82661 -2.01639,0 -2.72402,-4.00037 -0.75695,-4.27921 0.78407,-0.11115 0.9402,-1.06111 0.28199,-1.71561 -1.11678,-1.11046 -1.28384,-2.99305 -0.29482,-3.32272 0.22357,-0.0745 0.31279,-0.51993 0.26376,-1.31709 -0.0673,-1.09482 0.018,-1.29165 0.93604,-2.161815 1.25942,-1.19361 1.17422,-1.20084 2.70251,0.22873 0.70009,0.654855 1.40478,1.190635 1.56596,1.190635 0.47953,0 0.84749,1.87283 0.58987,3.00212 -0.26628,1.16729 -1.20248,2.28955 -1.90998,2.28955 -0.53218,0 -0.64691,0.39666 -0.19542,0.67569 0.15819,0.0978 0.42013,0.0453 0.58208,-0.11668 1.38967,-1.38967 3.38394,2.11338 2.24309,3.94015 -0.27998,0.44833 -0.24188,0.58271 0.26609,0.93852 1.12776,0.78992 1.42624,1.76054 0.83854,2.72691 -0.78203,1.28595 -0.67331,2.42503 0.31417,3.29155 0.83272,0.7307 0.92808,1.45748 0.37433,2.85334 -0.1321,0.33303 -0.0148,0.39926 0.5728,0.32314 0.86561,-0.11213 1.03211,-0.004 1.99726,1.29085 1.10313,1.48058 0.96176,2.85424 -0.36431,3.53996 -0.41891,0.21664 -0.76168,0.51364 -0.76168,0.65998 0,0.46035 0.80373,0.59814 1.45521,0.2495 1.93847,-1.03746 3.01382,3.09528 1.2895,4.95583 -0.34541,0.37272 -0.62804,0.76026 -0.62804,0.86117 0,0.10091 -0.31988,0.32922 -0.71086,0.50734 -0.71083,0.3239 -0.71083,0.3239 -0.034,0.90238 2.56408,2.19147 2.67727,3.82868 0.42643,6.1681 -1.12995,1.17446 -1.10217,2.7549 0.13436,7.63956 1.23968,4.89706 1.3921,11.27955 0.35385,14.81665 -0.21357,0.72761 -0.45122,1.88323 -0.52811,2.56805 -0.0769,0.68482 -0.27707,1.50164 -0.44484,1.81517 -0.42799,0.79971 -1.20314,3.6979 -1.65825,6.20012 -0.39031,2.14585 -0.36748,2.67065 0.33396,7.67291 0.16324,1.16417 0.34774,2.72913 0.40999,3.47771 0.0623,0.74859 0.47414,2.26973 0.91533,3.38032 0.90985,2.29042 0.96443,2.68036 0.40526,2.89494 -0.3675,0.14102 -0.58496,1.22724 -0.24569,1.22724 0.17322,0 0.90715,-0.70038 0.90715,-0.86569 0,-0.22701 1.80673,-2.23232 4.31074,-4.78451 1.88052,-1.91672 2.53891,-2.75558 2.40122,-3.05938 -0.63921,-1.41039 -0.20629,-19.86542 0.46601,-19.86542 0.12671,0 0.23037,-0.28993 0.23037,-0.64423 0,-0.35433 0.11621,-0.94991 0.25826,-1.32349 0.14203,-0.37362 0.31285,-1.95895 0.3796,-3.52296 0.0668,-1.56403 0.25609,-3.439 0.42077,-4.1666 1.40859,-6.22358 1.59253,-15.68479 0.30707,-15.79586 -1.77617,-0.15344 -2.77301,-3.30047 -1.49333,-4.71451 0.34533,-0.38158 0.42307,-0.66257 0.24879,-0.89926 -0.97002,-1.3176 -1.20669,-1.75075 -1.19129,-2.18033 0.0286,-0.7965 0.003,-1.46793 -0.11033,-2.92949 -0.10067,-1.29514 -0.0492,-1.43904 0.80103,-2.24102 1.28143,-1.20867 1.20684,-1.85992 -0.26274,-2.29384 -1.34969,-0.39851 -1.60443,-0.82796 -1.18279,-1.99397 0.26789,-0.74084 0.22199,-0.94962 -0.41431,-1.88413 -0.79473,-1.16718 -0.79163,-2.0116 0.0135,-3.7085 0.43432,-0.91522 0.43418,-1.00484 -0.003,-1.74358 -0.3447,-0.58354 -0.42376,-1.12438 -0.31539,-2.15755 0.0796,-0.75834 0.22376,-2.50989 0.32047,-3.89233 0.11401,-1.63005 0.31435,-2.67285 0.56994,-2.96672 0.25111,-0.28877 0.31803,-0.62471 0.18441,-0.92605 -0.11533,-0.26008 -0.24495,-0.83005 -0.28802,-1.26661 -0.0431,-0.43656 -0.13878,-1.12122 -0.21268,-1.52149 -0.1661,-0.899665 0.24411,-2.050385 0.73094,-2.050385 0.77777,0 1.34977,-0.98457 0.85781,-1.47654 -0.28827,-0.28826 -0.4136,-0.77049 -0.36124,-1.39001 0.15788,-1.8687 3.54777,-1.0273 4.08715,1.01446 0.0961,0.3638 0.39471,0.94538 0.66355,1.29244 0.80828,1.04336 0.30226,2.791095 -1.01174,3.494325 -0.57597,0.30824 -0.57597,0.30824 0.1678,0.93409 1.50299,1.26468 2.31463,4.38796 1.30278,5.0133 -0.41423,0.25601 -0.25212,0.86132 0.42685,1.59398 0.76642,0.82696 0.89647,2.55246 0.25617,3.399 -0.66963,0.88532 -0.49363,1.93196 0.40281,2.39553 1.98273,1.02532 2.34193,3.17368 0.84687,5.06508 -0.7562,0.95665 -0.98798,1.44375 -0.81317,1.709 0.13444,0.20402 0.22627,1.20441 0.20408,2.22305 -0.0222,1.01865 0.16033,2.80459 0.40563,3.96875 0.31292,1.48514 0.39407,2.65115 0.27199,3.90811 -0.17396,1.79144 -0.17396,1.79144 0.87918,2.77813 1.96488,1.84083 1.40579,6.41064 -0.78433,6.41064 -0.2717,0 -0.48733,0.20016 -0.49884,0.46302 -0.0111,0.25466 -0.0782,0.70114 -0.14904,0.99219 -0.0708,0.29104 -0.23664,2.55323 -0.36843,5.02708 -0.13179,2.47385 -0.31216,4.8551 -0.40082,5.29167 -0.0887,0.43656 -0.38624,1.92484 -0.66133,3.30729 -0.27506,1.38245 -0.7525,3.46604 -1.06098,4.63021 -0.30847,1.16415 -0.60147,2.83103 -0.65114,3.70415 -0.0497,0.87313 -0.20679,2.31826 -0.34922,3.21141 -0.14242,0.89315 -0.22929,2.02425 -0.19304,2.51354 0.0362,0.4893 -0.0297,1.23023 -0.14653,1.64656 -0.49249,1.75474 1.20021,6.77889 2.28098,6.77029 0.33689,-0.003 1.98437,-1.49175 1.98437,-1.79353 -5e-5,-0.30266 2.53098,-2.42639 2.89169,-2.42639 0.15578,0 0.28326,-0.096 0.28326,-0.21344 0,-0.11737 0.88979,-0.98057 1.97734,-1.91823 1.08751,-0.93763 1.98048,-1.85362 1.98437,-2.03552 0.004,-0.1819 0.1715,-0.33073 0.37251,-0.33073 0.201,0 0.70297,-0.44249 1.11546,-0.9833 1.04536,-1.37054 3.23159,-3.47506 4.05127,-3.89982 1.44703,-0.74986 3.21955,-3.143 3.58508,-4.84031 0.10183,-0.47294 0.265,-0.86084 0.36258,-0.86196 0.3012,-0.003 0.83889,-1.38673 0.83889,-2.15804 0,-1.49442 1.45812,-1.59899 2.79768,-0.20066 0.66146,0.69048 0.77761,1.02714 0.79772,2.31206 0.0414,2.64677 0.92001,5.22098 2.7709,8.11849 0.27887,0.43656 0.5915,0.97234 0.69477,1.19062 0.10324,0.21829 0.46204,0.69361 0.79729,1.05633 0.33528,0.36269 0.74441,1.07706 0.90919,1.5875 0.16476,0.5104 0.75978,1.70886 1.32226,2.66321 0.56247,0.95436 1.02269,1.87672 1.02269,2.04973 0,0.17299 0.46331,1.18396 1.0296,2.24663 0.56629,1.06265 1.29508,2.87872 1.61951,4.03569 0.32446,1.157 0.93269,2.8295 1.35165,3.71673 0.41895,0.88723 0.76174,1.93683 0.76174,2.33249 0,0.39566 0.12994,0.96218 0.28874,1.25891 0.15883,0.29676 0.33499,0.91401 0.39148,1.37168 0.0565,0.45768 0.21299,1.36792 0.34774,2.02277 1.43415,6.96865 2.05838,21.08078 1.02992,23.28333 -0.23784,0.50932 -0.51205,1.69995 -0.60939,2.64584 -0.18854,1.83229 -1.90839,7.327 -2.77794,8.87513 -0.28745,0.51181 -0.52263,1.05428 -0.52263,1.20554 0,0.34293 -1.28331,2.16792 -2.43713,3.46589 -1.29093,1.45216 -2.4438,2.89533 -2.56159,3.20656 -0.15381,0.4064 -1.8509,2.5981 -2.57474,3.32513 -1.30567,1.3114 -0.25374,1.26716 1.73177,-0.0728 0.99296,-0.67014 1.71416,-0.88308 4.24649,-1.25384 1.67772,-0.24564 3.83444,-0.57338 4.79271,-0.72832 0.95827,-0.15491 3.69671,-0.352 6.08542,-0.43794 7.20399,-0.25915 11.55642,-0.57562 12.01354,-0.87349 0.14689,-0.0957 0.92191,-0.18743 1.72228,-0.20386 0.80036,-0.0164 2.11005,-0.0621 2.91041,-0.10158 1.82539,-0.09 6.22234,0.2262 7.27604,0.52322 2.55667,0.72067 3.45054,0.72056 4.86384,0 2.09785,-1.07066 6.67316,-3.17074 6.90758,-3.17074 0.13706,0 0.69969,-0.19511 1.25034,-0.43357 0.55063,-0.23845 1.23929,-0.52422 1.53033,-0.63508 1.61258,-0.61418 3.15994,-1.40124 3.64704,-1.85502 0.30456,-0.28374 0.70001,-0.51592 0.87871,-0.51592 0.17872,0 0.36462,-0.0902 0.41315,-0.20042 0.16271,-0.36975 2.23046,-1.87936 3.0155,-2.20154 2.05486,-0.84334 2.99821,-1.3081 3.14844,-1.55118 0.0904,-0.1462 0.60574,-0.38652 1.1453,-0.53403 0.53957,-0.14753 1.36152,-0.62701 1.82658,-1.06553 0.46503,-0.43852 1.08363,-0.7973 1.37462,-0.7973 0.31628,0 0.66931,-0.29268 0.8777,-0.7276 0.20984,-0.43794 0.57499,-0.73911 0.9172,-0.75652 0.31271,-0.0159 0.74645,-0.0972 0.96385,-0.18058 1.24222,-0.4767 1.46886,2.29269 0.26914,3.28837 -0.19431,0.16127 -0.35327,0.61304 -0.35327,1.00399 0,0.39092 -0.17481,0.94189 -0.38847,1.22436 -0.21365,0.28247 -0.39224,0.69406 -0.39687,0.91461 -0.005,0.22053 -0.2449,0.81584 -0.53393,1.32292 -0.28903,0.50705 -0.88125,1.65444 -1.31601,2.54974 -0.43476,0.89532 -0.94242,1.79133 -1.12813,1.99117 -0.18571,0.19984 -0.63222,0.9556 -0.99227,1.67944 -0.6922,1.39163 -2.16159,3.31166 -3.72951,4.87328 -1.01365,1.0096 -1.20719,1.32916 -2.8929,4.77724 -1.55694,3.18461 -2.74318,4.88738 -4.88448,7.01146 -1.02692,1.01865 -2.04443,2.12537 -2.26112,2.45941 -0.47369,0.73009 -4.26244,4.00833 -5.21825,4.51506 -0.63735,0.33792 -2.4911,1.72683 -4.54181,3.40294 -1.12239,0.91739 -3.8009,2.71748 -4.04524,2.71862 -0.10017,0 -0.57317,0.35803 -1.05116,0.79459 -0.47797,0.43657 -1.01939,0.79375 -1.20314,0.79375 -0.18376,0 -1.13951,0.4377 -2.12387,0.97272 -3.3928,1.84399 -4.12969,2.20231 -4.54654,2.2107 -0.23001,0.004 -0.64929,0.18322 -0.93176,0.39687 -0.2825,0.21365 -0.79269,0.38846 -1.13379,0.38846 -0.34113,0 -0.8839,0.16434 -1.20621,0.36521 -0.32229,0.20087 -1.13036,0.43381 -1.7957,0.51766 -5.57226,0.70217 -6.26915,3.30663 -1.28114,4.7879 1.41761,0.42097 2.60307,1.14966 3.72181,2.28774 1.03876,1.0567 5.56017,3.97092 8.577,5.52821 1.6065,0.82925 3.21037,1.90357 4.09033,2.73978 0.79613,0.75658 1.80472,1.54742 2.24128,1.75742 0.43656,0.20997 0.97234,0.51599 1.19063,0.67998 0.21828,0.16401 1.17078,0.56917 2.11666,0.90035 0.94589,0.33118 2.07698,0.75885 2.51354,0.95038 1.44884,0.63564 5.26209,1.46976 7.40834,1.62055 1.16416,0.0818 2.22977,0.2545 2.36802,0.38383 0.13824,0.12933 1.17131,0.23516 2.29574,0.23516 3.05456,0 4.07728,2.25161 1.47608,3.24977 -0.24821,0.0952 -0.4513,0.28676 -0.4513,0.42556 0,0.475 -2.88737,1.10543 -7.30464,1.59488 -1.03437,0.11462 -2.0152,0.29152 -2.17964,0.39314 -0.55507,0.34306 -3.25689,0.95703 -3.51351,0.79841 -0.14002,-0.0865 -0.39817,-0.0431 -0.5737,0.0966 -0.17552,0.13962 -1.32892,0.39855 -2.56309,0.57537 -1.23421,0.17679 -2.48436,0.45527 -2.77813,0.61883 -0.29379,0.16357 -0.61328,0.27549 -0.70998,0.24871 -0.25252,-0.0699 -2.94897,0.74549 -3.26377,0.98692 -0.14552,0.11163 -0.91943,0.35378 -1.71979,0.53811 -0.80037,0.18434 -1.89696,0.55711 -2.43687,0.82839 -0.5399,0.27127 -1.23105,0.49326 -1.53585,0.49326 -0.52586,0 -1.31461,0.30805 -4.36166,1.70354 -2.34172,1.07247 -4.78594,1.64622 -7.9375,1.86323 -5.90531,0.40666 -8.33784,0.75713 -10.45104,1.50579 -1.23692,0.43821 -2.66567,0.89123 -3.175,1.00672 -1.36699,0.30993 -2.931,0.92368 -3.97369,1.55929 -0.5066,0.30885 -1.21876,0.56576 -1.58256,0.57092 -0.3638,0.005 -0.89257,0.18423 -1.17504,0.39788 -0.28249,0.21365 -0.78446,0.38846 -1.11551,0.38846 -0.33104,0 -0.9929,0.16772 -1.47079,0.37272 -1.53977,0.66056 -3.36357,1.14075 -8.67407,2.28386 -1.40722,0.30289 -6.24274,0.37457 -8.86355,0.13139 -3.79343,-0.352 -4.92445,-0.66485 -6.80767,-1.88312 -0.99428,-0.6432 -1.97403,-1.16943 -2.17721,-1.16943 -0.20317,0 -0.60375,-0.29792 -0.89019,-0.66204 -0.28641,-0.36412 -0.97964,-0.87432 -1.54053,-1.1338 -1.81237,-0.83838 -4.08903,-2.45742 -5.70029,-4.05373 -0.86536,-0.85733 -1.67437,-1.55877 -1.7978,-1.55877 -0.12346,0 -1.39523,-1.16964 -2.82623,-2.59921 -6.1191,-6.11309 -9.50341,-7.21251 -9.6543,-3.13629 -0.068,1.83623 -0.23302,2.94161 -0.50369,3.37344 -0.22143,0.35324 -0.39039,0.99946 -0.37547,1.43602 0.0238,0.69713 -0.3257,1.81332 -1.8955,6.0529 -0.20891,0.5642 -1.26164,2.01695 -2.33939,3.22829 -1.07778,1.21137 -2.15535,2.50129 -2.39464,2.86647 -0.23929,0.3652 -0.64926,0.73199 -0.91107,0.81507 -0.2618,0.0831 -0.76337,0.41516 -1.114605,0.73793 -0.96604,0.88773 -2.34921,1.86444 -3.45527,2.43991 -0.5457,0.28392 -0.99219,0.66775 -0.99219,0.85293 0,0.18518 -0.10993,0.33671 -0.24431,0.33671 -0.13439,0 -0.77327,0.40376 -1.41976,0.89723 -0.64651,0.49347 -1.57689,0.98541 -2.06753,1.09318 -1.24243,0.27286 -3.94131,1.4701 -3.94131,1.74834 0,0.1265 -0.12669,0.23 -0.28155,0.23 -0.15483,0 -0.9585,0.31083 -1.78593,0.69072 -2.324,1.06699 -2.72193,1.18978 -4.28252,1.32128 -0.80037,0.0674 -2.28865,0.29048 -3.30729,0.49564 -1.01865,0.20516 -3.18183,0.4385 -4.80709,0.51853 -1.62523,0.08 -3.23257,0.24824 -3.57187,0.37378 -0.33928,0.12552 -0.7697,0.17455 -0.9565,0.10893 -0.18679,-0.0656 -0.48445,-0.007 -0.66145,0.1311 -0.17701,0.13772 -1.45294,0.45625 -2.83539,0.70781 -1.38244,0.25157 -2.84974,0.6259 -3.26064,0.8318 -0.4241,0.21257 -0.93885,0.2884 -1.19063,0.17545 -0.74686,-0.33505 -2.43848,-0.15812 -5.15085,0.53871 -1.42486,0.36605 -2.83181,0.60249 -3.12656,0.52541 -0.29472,-0.0771 -2.22453,0.0193 -4.2885,0.21402 -2.06393,0.19479 -3.83947,0.33065 -3.94562,0.30189 -0.10618,-0.0288 -0.93962,0.13973 -1.85208,0.37442 -0.9125,0.23468 -2.16509,0.484 -2.78355,0.55401 -0.86945,0.0984 -1.12448,0.23773 -1.12448,0.6142 0,0.64109 -0.405,0.86778 -0.9905,0.55444 -0.32856,-0.17585 -0.62735,-0.13931 -0.98208,0.12006 -0.2804,0.20506 -0.57637,0.35873 -0.65767,0.3415 -0.0813,-0.0172 -0.50506,-0.10824 -0.94163,-0.20225 z m 19.84375,-10.36386 c 2.23371,0.0811 2.2262,0.0813 6.46594,-0.11041 4.11895,-0.18624 4.76829,-0.44201 6.10176,-2.4035 0.21829,-0.3211 0.82415,-1.22309 1.34642,-2.00446 0.52223,-0.78137 1.20025,-1.71834 1.50669,-2.08214 0.30642,-0.3638 0.90543,-1.07818 1.33112,-1.5875 0.42572,-0.50932 1.11318,-1.58088 1.52776,-2.38125 0.41457,-0.80036 0.84468,-1.57427 0.95581,-1.71979 2.05581,-2.69235 3.65095,-4.9167 3.65095,-5.09114 0,-0.12152 0.24011,-0.69194 0.53362,-1.26759 0.85209,-1.67135 -0.076,-1.41671 -2.31765,0.63585 -0.37671,0.34493 -1.05214,0.79401 -1.50095,0.99798 -0.44884,0.20396 -1.35184,0.77737 -2.00668,1.27426 -0.65485,0.49686 -1.66688,1.23335 -2.24896,1.63666 -0.58208,0.4033 -1.97038,1.54199 -3.0851,2.53039 -1.11471,0.98841 -2.14193,1.79713 -2.28271,1.79713 -0.14076,0 -0.39926,0.17267 -0.57444,0.38375 -0.17516,0.21106 -0.99341,0.76513 -1.81832,1.23127 -0.82492,0.46611 -1.85704,1.0492 -2.2936,1.29577 -0.43656,0.24654 -1.32953,0.82685 -1.98437,1.28958 -1.92797,1.36236 -4.0195,2.78913 -4.55171,3.10502 -0.27236,0.16166 -0.75864,0.53469 -1.08061,0.82894 -0.32197,0.29426 -0.9648,0.7267 -1.42851,0.96096 -1.5426,0.77933 -1.38473,1.05625 0.47289,0.82936 0.93123,-0.11374 2.40752,-0.18086 3.28065,-0.14914 z m 24.93697,-3.21741 c 0.18191,-0.1501 0.33073,-0.17497 0.33073,-0.0553 0,0.11967 0.14288,0.0747 0.3175,-0.0999 0.17463,-0.17463 0.56754,-0.3175 0.87313,-0.3175 0.30559,0 0.66873,-0.095 0.80698,-0.21119 0.13824,-0.11618 0.9062,-0.43069 1.70656,-0.69895 1.78811,-0.59931 2.50277,-1.21936 3.37032,-2.9241 0.36967,-0.72638 0.82076,-1.44076 1.00245,-1.5875 0.18169,-0.14676 0.45783,-1.15977 0.6137,-2.25118 0.15584,-1.0914 0.64545,-3.15989 1.08802,-4.5966 0.44257,-1.43674 0.80468,-2.8729 0.80468,-3.19146 0,-0.31859 0.24413,-1.0845 0.5425,-1.70207 0.37211,-0.7702 0.57213,-1.80374 0.63688,-3.29083 0.0519,-1.1924 0.21418,-2.70378 0.3606,-3.35862 0.36803,-1.64619 -0.2476,-1.65367 -2.06915,-0.0251 -0.50932,0.45535 -1.67018,1.19941 -2.57969,1.65344 -0.9095,0.45405 -1.65364,0.92823 -1.65364,1.05378 0,0.12554 -0.12758,0.22828 -0.28348,0.22828 -0.80084,0 -1.6062,1.75273 -0.9254,2.01398 0.56062,0.21514 0.52482,0.56918 -0.21276,2.10368 -0.3453,0.71845 -0.71575,1.72302 -0.82319,2.23234 -0.10742,0.50933 -0.34013,1.10464 -0.51711,1.32292 -0.17697,0.21828 -0.47259,0.92432 -0.6569,1.569 -0.18431,0.64466 -0.62159,1.39745 -0.97168,1.67283 -0.35013,0.27541 -0.63657,0.60518 -0.63657,0.73285 0,0.39864 -1.56712,2.57545 -1.96368,2.72764 -0.94575,0.3629 -4.38632,6.18162 -4.38632,7.41815 0,0.31588 4.80153,-0.0688 5.22552,-0.41863 z m -31.60548,-1.39872 c 0.66704,-0.50933 1.27418,-0.92604 1.34922,-0.92604 0.075,0 0.57502,-0.29766 1.11111,-0.66146 0.5361,-0.36381 1.1343,-0.66146 1.3293,-0.66146 0.19502,0 0.97396,-0.46876 1.73093,-1.04172 0.757,-0.57295 1.66431,-1.114 2.01628,-1.20235 0.35198,-0.0883 0.9852,-0.39346 1.40716,-0.67807 0.42196,-0.28459 1.11959,-0.75557 1.55025,-1.04661 0.43066,-0.29104 0.87479,-0.52917 0.98697,-0.52917 0.3383,0 3.26925,-1.85634 5.24145,-3.3197 1.01865,-0.75586 2.86412,-2.05065 4.10104,-2.87734 1.23693,-0.82669 2.66568,-1.89516 3.175,-2.37435 0.50933,-0.47921 1.25347,-1.08209 1.65365,-1.33974 1.73667,-1.11818 -2.06036,-1.21735 -4.69635,-0.12264 -0.29105,0.12087 -1.06495,0.36733 -1.7198,0.54767 -0.65484,0.18036 -1.43189,0.47974 -1.72677,0.66534 -0.29491,0.18558 -1.30694,0.50864 -2.24896,0.71792 -1.84478,0.40984 -4.49032,1.34903 -4.73644,1.68148 -0.0833,0.11248 -0.44902,0.33499 -0.81283,0.49448 -2.60908,1.1439 -3.97716,1.90701 -6.07605,3.38929 -1.78265,1.25894 -2.27107,1.74416 -2.50838,2.49177 -0.10036,0.31623 -0.29353,0.57499 -0.42923,0.57499 -0.13571,0 -0.24675,0.127 -0.24675,0.28223 0,0.15523 -0.2816,0.66125 -0.6258,1.12448 -0.78827,1.06095 -1.37392,2.85517 -1.4624,4.48027 -0.0818,1.5027 0.064,1.53212 1.6374,0.33073 z m 47.80534,-6.78429 c 0.5061,-0.416 1.07588,-0.75634 1.26619,-0.75634 0.61465,0 3.092605,-6.1473 3.359545,-8.33437 0.10657,-0.87313 0.40304,-2.06375 0.65878,-2.64584 1.0744,-2.44533 1.48879,-7.03961 0.69644,-7.72115 -1.2605,-1.08423 -2.268265,-0.79338 -2.949515,0.85125 -0.239,0.57697 -0.66035,1.54855 -0.93631,2.15902 -0.27596,0.61048 -0.50176,1.5307 -0.50176,2.04494 0,0.51425 -0.31128,1.86023 -0.69172,2.99109 -0.7529,2.23798 -1.2573,4.1117 -1.54932,5.75538 -0.10295,0.57941 -0.32319,1.29378 -0.48943,1.5875 -0.16624,0.29374 -0.32147,0.71265 -0.34499,0.93093 -0.0236,0.21828 -0.11702,0.75406 -0.2078,1.19063 -0.70046,3.36846 -0.42529,3.68551 1.68989,1.94696 z m 52.922545,-1.83057 c 0,-0.20643 -4.24632,-1.56427 -6.55545,-2.09624 -0.76782,-0.17688 -1.95844,-0.60696 -2.64583,-0.95571 -0.68736,-0.34877 -1.37623,-0.63462 -1.5308,-0.63523 -0.15457,0 -0.77388,-0.23921 -1.37628,-0.53025 -0.60238,-0.29105 -1.26971,-0.52917 -1.48297,-0.52917 -0.21325,0 -0.92244,-0.22921 -1.57599,-0.50938 -0.65355,-0.28014 -1.25502,-0.44259 -1.33659,-0.36102 -0.0816,0.0816 -0.42567,-0.0334 -0.76462,-0.25548 -0.89903,-0.58907 -4.42876,-2.05791 -4.41899,-1.83891 0.0127,0.28279 1.06973,0.96914 2.10835,1.36885 0.50933,0.19603 1.28323,0.67572 1.7198,1.066 0.92961,0.83111 2.49274,1.58827 3.27887,1.58827 0.30422,0 0.70181,0.23813 0.88358,0.52917 0.20076,0.32147 0.61701,0.52917 1.06055,0.52917 0.40156,0 0.73012,0.11599 0.73012,0.25778 0,0.30998 1.46071,1.10371 1.66156,0.90286 0.0777,-0.0777 0.77734,0.15854 1.5549,0.52483 2.14863,1.01222 8.68979,1.72315 8.68979,0.94446 z m 8.3557,-3.01646 c 0.34184,-0.22397 0.91633,-0.40722 1.27667,-0.40722 0.36034,0 0.71922,-0.1037 0.79756,-0.23043 0.0783,-0.12671 0.50205,-0.30234 0.94162,-0.39026 0.43961,-0.0879 1.32853,-0.40095 1.97538,-0.69562 0.64686,-0.29469 1.35422,-0.53578 1.57189,-0.53578 0.21768,0 0.46937,-0.11906 0.55931,-0.26458 0.0899,-0.14552 0.51787,-0.26458 0.95096,-0.26458 0.4331,0 1.05722,-0.1768 1.38697,-0.39283 0.94192,-0.6172 4.56523,-1.39287 7.31936,-1.56694 6.43498,-0.40672 12.68658,-1.30742 14.01516,-2.01922 0.73996,-0.39643 -1.52529,-0.59616 -2.84099,-0.25051 -1.47018,0.38626 -5.08434,0.3656 -7.33771,-0.0419 -1.20941,-0.2187 -7.52692,-0.31596 -12.43542,-0.19145 -0.14552,0.004 -2.05052,-0.0783 -4.23333,-0.18211 -4.673,-0.22236 -3.88824,-0.22233 -8.33438,-2.7e-4 -1.96453,0.0981 -4.04812,0.28311 -4.63021,0.41103 -3.12822,0.6876 -8.38808,0.75745 -10.71562,0.14232 -0.94589,-0.24998 -2.04867,-0.51686 -2.45065,-0.59306 -0.40196,-0.0762 -0.79592,-0.24389 -0.87551,-0.37261 -0.0796,-0.12875 -0.69472,-0.23408 -1.36702,-0.23408 -1.28045,0 -2.38974,-0.29208 -4.18775,-1.1026 -0.59166,-0.2667 -1.27627,-0.4849 -1.52135,-0.4849 -0.24511,0 -0.44564,-0.11449 -0.44564,-0.2544 0,-0.13991 -0.46535,-0.37968 -1.0341,-0.53284 -0.56874,-0.15314 -1.31289,-0.5724 -1.65364,-0.93165 -0.34076,-0.35928 -0.71124,-0.6553 -0.82326,-0.65781 -0.11203,-0.003 -0.67522,-0.30221 -1.25151,-0.66601 -0.57631,-0.3638 -1.22878,-0.66146 -1.44994,-0.66146 -0.22119,0 -0.40214,-0.10459 -0.40214,-0.23241 0,-0.12782 -0.47625,-0.3533 -1.05834,-0.50104 -2.04044,-0.51792 -0.40184,0.68022 3.96875,2.90192 0.9459,0.48083 1.85966,1.00558 2.03061,1.16615 0.17095,0.16055 1.00439,0.55965 1.85209,0.88689 5.0692,1.95683 5.57657,2.17122 9.3623,3.95605 0.95459,0.45003 1.93847,0.81828 2.18641,0.81828 0.24792,0 0.65752,0.10781 0.91022,0.23963 1.92307,1.00303 8.31512,3.19995 9.31051,3.19995 0.28072,0 0.59039,0.12943 0.68815,0.28763 0.0978,0.15819 0.41132,0.22653 0.69681,0.15189 0.28546,-0.0746 1.13522,0.0241 1.88836,0.21921 2.60447,0.67509 4.59544,0.77825 5.35942,0.27766 z M 51.536935,303.75118 c 0.97684,-0.50933 1.94181,-0.92604 2.1444,-0.92604 0.20256,0 0.98115,-0.31684 1.73021,-0.70409 2.18967,-1.13199 2.29889,-1.17917 3.57955,-1.54593 0.67207,-0.19246 2.41258,-0.78555 3.86779,-1.318 1.4552,-0.53242 2.88395,-1.02894 3.175,-1.10336 0.29104,-0.0744 0.76729,-0.23426 1.05833,-0.35523 1.16242,-0.48308 2.96635,-0.86895 3.96875,-0.84892 1.68029,0.0336 4.66735,0 5.82083,-0.0646 1.03333,-0.0583 4.00907,0.46831 4.30205,0.76126 0.0809,0.081 0.2772,0.0409 0.43611,-0.089 0.15891,-0.12989 1.3516,-0.79539 2.65046,-1.47892 7.22863,-3.80407 5.49717,-4.7218 -4.4782,-2.37363 -0.87313,0.20553 -2.81522,0.48774 -4.31578,0.62712 -1.50056,0.13938 -2.86978,0.36499 -3.04271,0.50136 -0.38983,0.30742 -1.53289,0.57467 -3.09255,0.7231 -0.65485,0.0623 -2.55985,0.24096 -4.23334,0.39693 -1.67349,0.156 -3.57849,0.45352 -4.23333,0.66117 -0.65484,0.20764 -2.02406,0.45619 -3.04271,0.55232 -2.19207,0.20685 -3.01074,0.79144 -6.99778,4.99692 -2.13688,2.25396 -1.84398,2.91544 0.70292,1.5875 z m 136.654255,-6.18144 c 0.10142,-0.0927 -0.85108,-0.63166 -2.11667,-1.19766 -1.26558,-0.566 -2.84747,-1.30127 -3.51528,-1.63396 -0.66783,-0.33266 -2.18368,-0.97872 -3.36854,-1.43566 -1.18488,-0.45691 -2.22308,-0.94202 -2.30711,-1.07801 -0.0841,-0.13597 -0.35415,-0.2484 -0.60021,-0.24982 -0.24609,0 -1.06278,-0.28911 -1.81491,-0.63932 -2.4108,-1.12247 -16.40567,-1.85668 -18.66694,-0.97933 -0.39589,0.15362 -1.28886,0.29787 -1.98437,0.32055 -1.84589,0.0602 -4.04141,0.0582 -5.10098,-0.005 -0.50933,-0.0302 -1.93808,0.0273 -3.175,0.12779 -1.23693,0.10049 -2.54662,0.17582 -2.91042,0.16743 -3.66371,-0.0844 -9.61705,0.0228 -11.64167,0.20942 -2.54018,0.23426 -7.30451,0.18828 -8.40053,-0.0811 -0.32742,-0.0805 -0.59531,-0.0622 -0.59531,0.0407 0,0.20558 1.95324,1.10553 2.39946,1.10553 0.15354,0 0.89686,0.28848 1.65182,0.64101 0.75499,0.35256 2.09844,0.87585 2.98548,1.16287 0.88702,0.28702 1.83952,0.63465 2.11667,0.77248 2.04949,1.01938 3.00657,1.40739 3.81116,1.54514 0.50933,0.0872 1.39015,0.33271 1.95739,0.54559 1.95914,0.73525 8.57303,1.00793 10.74261,0.44289 0.80037,-0.20844 2.20774,-0.3732 3.12751,-0.36608 0.9198,0.007 1.99136,-0.14248 2.38125,-0.33239 0.38992,-0.18992 1.46645,-0.37526 2.39231,-0.41188 0.92586,-0.0366 1.93789,-0.16153 2.24896,-0.27758 0.63905,-0.23841 3.43503,-0.15618 3.87202,0.11388 0.1574,0.0973 2.53023,0.21857 5.27299,0.26956 2.74272,0.051 5.3872,0.16206 5.8766,0.24688 1.0945,0.18968 7.89141,0.95695 10.41482,1.17565 2.01748,0.17486 4.65339,0.0683 4.94689,-0.20008 z m 8.41457,-4.01301 c 0,-0.10798 -0.44648,-0.39725 -0.99219,-0.64286 -2.18601,-0.98383 -2.91991,-1.38353 -4.69635,-2.55778 -1.01865,-0.67331 -2.65851,-1.59348 -3.64413,-2.04478 -0.98563,-0.45133 -1.86159,-1.00176 -1.94654,-1.22317 -0.085,-0.22143 -0.27221,-0.40259 -0.41606,-0.40259 -0.14388,0 -0.57761,-0.21682 -0.96388,-0.48186 -0.38626,-0.265 -1.29762,-0.70001 -2.02522,-0.96671 -0.72761,-0.26667 -1.94038,-0.76422 -2.69502,-1.10566 -0.75467,-0.34142 -1.53453,-0.62077 -1.73302,-0.62077 -0.19852,0 -0.47403,-0.10377 -0.61228,-0.23061 -0.39991,-0.36684 -3.83148,-1.35628 -4.72768,-1.36313 -0.44844,-0.003 -1.70831,-0.25231 -2.79971,-0.55306 -1.09141,-0.30078 -2.37472,-0.64339 -2.85179,-0.76137 -0.47707,-0.11797 -1.02481,-0.34514 -1.21721,-0.50482 -0.19238,-0.15968 -1.17129,-0.34885 -2.1753,-0.4204 -1.00402,-0.0715 -2.70637,-0.26114 -3.78301,-0.42137 -1.19507,-0.17783 -2.79239,-0.21212 -4.10105,-0.0881 -1.17893,0.11179 -2.38164,0.22109 -2.67268,0.24292 -0.29105,0.0217 -0.94589,0.17584 -1.45521,0.34229 -0.50933,0.16645 -1.34276,0.35155 -1.85209,0.41135 -1.05333,0.12369 -1.44002,0.25394 -3.35706,1.13085 -0.75496,0.34534 -1.55863,0.62791 -1.78593,0.62791 -0.22728,0 -0.41326,0.12608 -0.41326,0.2802 0,0.15409 -0.11091,0.21164 -0.24648,0.12787 -0.22125,-0.13674 -4.70263,1.90619 -5.41671,2.46933 -0.15946,0.12573 -0.76618,0.37224 -1.34826,0.54779 -0.58209,0.17553 -1.22709,0.37354 -1.4333,0.44003 -0.88882,0.28649 0.28834,0.6296 2.6308,0.76676 4.61423,0.27022 7.16838,0.19527 19.57229,-0.57433 3.31163,-0.20545 5.32167,-0.20148 7.54062,0.0148 1.16417,0.11353 2.54537,0.23767 3.06938,0.27588 0.52398,0.0382 1.08918,0.1538 1.256,0.25688 0.16682,0.10311 0.92872,0.18982 1.69313,0.19267 0.88347,0.003 1.70862,0.19061 2.26483,0.51404 0.48128,0.27985 1.19565,0.51006 1.5875,0.51162 0.39187,0.003 1.78319,0.53734 3.09179,1.19063 1.30863,0.65328 2.52902,1.18779 2.71198,1.18779 0.18298,0 0.33268,0.10962 0.33268,0.24357 0,0.13396 0.38696,0.32629 0.8599,0.42741 0.47294,0.10113 0.97896,0.26998 1.12448,0.37523 0.14552,0.10526 1.27661,0.45686 2.51354,0.78135 2.05378,0.53879 3.52687,0.94353 5.68854,1.56294 0.97399,0.27908 5.42396,0.31282 5.42396,0.0411 z m 2.75378,-3.82847 c -0.23836,-0.3638 -0.509,-0.66376 -0.60139,-0.66654 -0.0924,-0.003 -0.64297,-0.41952 -1.22346,-0.92604 -0.5805,-0.50654 -1.20976,-0.92096 -1.39838,-0.92096 -0.421,0 -1.43454,-0.62013 -2.85194,-1.74493 -0.58986,-0.4681 -1.72096,-1.20332 -2.51354,-1.63388 -0.79262,-0.43056 -1.88759,-1.03505 -2.4333,-1.34334 -0.5457,-0.30827 -0.99219,-0.48453 -0.99219,-0.39172 0,0.0928 -0.20835,-0.0143 -0.46302,-0.23831 -0.25466,-0.22392 -1.35599,-0.79404 -2.44739,-1.26693 -1.09141,-0.47292 -2.04391,-0.93324 -2.11667,-1.02296 -0.19158,-0.23627 -1.09667,-0.78525 -1.78596,-1.08328 -0.32742,-0.14158 -1.93477,-0.90363 -3.57188,-1.69347 -1.63708,-0.78986 -3.45278,-1.59213 -4.03487,-1.78284 -0.58208,-0.19074 -1.37438,-0.55946 -1.76064,-0.81944 -0.38627,-0.25995 -0.88241,-0.47265 -1.10255,-0.47265 -0.22013,0 -0.96636,-0.24268 -1.6583,-0.53928 -4.55718,-1.95344 -10.15717,-3.18902 -12.22957,-2.69832 -0.68233,0.16155 -1.83592,0.36885 -2.56352,0.46069 -0.7276,0.0918 -1.77308,0.39701 -2.32325,0.67818 -0.55018,0.28117 -1.22778,0.51123 -1.50575,0.51123 -0.27797,0 -0.57899,0.11906 -0.66892,0.26458 -0.0899,0.14552 -0.3384,0.26459 -0.55213,0.26459 -0.21373,0 -1.23179,0.41671 -2.26235,0.92604 -1.03057,0.50932 -2.00051,0.92604 -2.15542,0.92604 -0.45025,0 -5.58959,5.00681 -5.36742,5.22899 0.15528,0.15528 3.47689,-1.17118 4.78107,-1.90926 0.58209,-0.32944 1.39539,-0.68004 1.80735,-0.77915 0.41195,-0.0991 1.18819,-0.4708 1.72497,-0.82603 2.68105,-1.77424 7.40011,-2.4783 11.44667,-1.70778 0.78386,0.14925 1.78237,0.32917 2.21893,0.39979 2.29116,0.3706 9.50463,2.36889 10.05417,2.78521 0.14552,0.11025 0.74083,0.28525 1.32291,0.38891 0.58209,0.10364 1.6483,0.4658 2.36937,0.80479 0.96168,0.45209 1.40235,0.54054 1.65365,0.33197 0.23246,-0.19291 0.34261,-0.19561 0.34261,-0.008 0,0.25194 0.41238,0.39439 2.02401,0.69906 0.71075,0.13435 2.95436,0.85855 4.81766,1.55501 0.77973,0.29144 2.38707,1.17702 3.57188,1.96794 1.18478,0.79092 2.71126,1.7221 3.39219,2.06928 0.68094,0.34719 1.30541,0.74023 1.38774,0.87344 0.23509,0.38037 2.23216,1.35536 2.77617,1.35536 0.26998,0 1.18907,0.44696 2.04237,0.99322 3.02705,1.93781 3.60119,2.13749 2.85009,0.99115 z M 72.583375,288.26535 c 4.82642,-0.59888 7.08623,-0.99398 7.46085,-1.30447 0.39744,-0.32938 3.13526,-0.57724 7.5532,-0.68377 2.11005,-0.0509 3.93276,-0.0989 4.0505,-0.10662 0.45048,-0.0297 -0.11004,-0.49297 -0.80687,-0.66688 -0.40156,-0.10023 -0.90868,-0.33235 -1.12697,-0.51584 -1.70471,-1.43295 -11.12091,-2.62183 -13.24448,-1.67219 -0.50091,0.224 -1.32234,0.54049 -1.82539,0.70332 -0.50305,0.16282 -1.15789,0.51678 -1.45521,0.78658 -0.29731,0.26982 -1.236,0.74604 -2.08603,1.05833 -2.36884,0.87027 -5.27793,3.76679 -3.08366,3.07036 0.29162,-0.0926 2.34545,-0.39355 4.56406,-0.66882 z m 50.335915,-2.51089 c 0.43657,-0.084 1.03189,-0.18947 1.32293,-0.23448 0.49281,-0.0762 2.97669,-1.18753 6.08542,-2.72277 1.36054,-0.67188 2.77169,-1.74464 2.78648,-2.11826 0.0156,-0.39113 1.24156,-1.61499 2.0225,-2.01882 0.42609,-0.22034 1.27455,-0.94289 1.88548,-1.60565 1.82419,-1.97906 1.44057,-2.22438 -1.43235,-0.91601 -1.0024,0.45651 -2.00112,0.84889 -2.21941,0.87193 -0.41986,0.0443 -2.54764,1.01359 -5.1205,2.33251 -0.85175,0.43662 -1.92331,0.82156 -2.38125,0.85538 -0.62164,0.046 -0.97872,0.28903 -1.40917,0.9593 -0.31708,0.49376 -0.88263,1.27127 -1.25678,1.7278 -0.40712,0.49681 -0.68022,1.16073 -0.68022,1.65365 0,0.63884 -0.1152,0.8236 -0.51356,0.8236 -0.53615,0 -0.904,0.34631 -0.64402,0.60631 0.083,0.083 0.28816,0.10309 0.45585,0.0446 0.16767,-0.0585 0.66204,-0.1751 1.0986,-0.25905 z m -58.009885,-2.49947 c 2.21728,-1.42065 2.44586,-1.76715 1.32291,-2.00541 -1.53199,-0.32504 -4.20065,-0.95369 -4.96093,-1.16866 -0.43657,-0.12343 -1.62719,-0.36288 -2.64584,-0.53208 -2.77368,-0.4608 -4.64119,-0.81423 -5.82083,-1.10162 -0.58208,-0.14179 -1.23693,-0.28321 -1.45521,-0.31422 -0.21828,-0.031 -0.69453,-0.22312 -1.05833,-0.42685 -0.3638,-0.20376 -0.66146,-0.33131 -0.66146,-0.28348 0,0.13764 -2.74474,-0.53469 -4.63021,-1.13418 -0.94588,-0.30076 -1.92582,-0.53282 -2.1776,-0.51568 -0.2518,0.0172 -0.52673,-0.0803 -0.61092,-0.21661 -0.0842,-0.13626 -0.49747,-0.24773 -0.91834,-0.24773 -0.98439,0 -3.72555,-0.712 -4.07096,-1.05741 -0.14603,-0.14602 -0.51951,-0.26551 -0.82995,-0.26551 -0.31046,0 -0.64749,-0.0831 -0.74898,-0.18455 -0.26331,-0.26328 -6.26846,-1.90396 -7.03741,-1.9227 -0.47522,-0.0116 1.23907,1.49188 1.97437,1.7316 0.29104,0.0949 0.88635,0.42897 1.32292,0.74244 0.97133,0.69752 1.7916,1.0858 3.175,1.50297 0.58208,0.17552 1.62388,0.60253 2.3151,0.94893 0.69122,0.34639 1.25677,0.57785 1.25677,0.51437 0,-0.23026 2.02126,0.42675 3.57188,1.16107 1.78739,0.84643 3.74528,1.57393 6.08541,2.26116 0.87313,0.25641 2.30188,0.79412 3.175,1.19491 1.94154,0.89122 2.56845,1.08344 3.80265,1.16602 0.97255,0.0651 5.03997,1.09342 5.28198,1.33543 0.55494,0.55494 2.42713,0.0453 4.34298,-1.18221 z m 7.86598,-4.93255 c 0.58505,-0.23407 1.0637,-0.51834 1.0637,-0.63169 0,-0.28887 3.199,-1.23018 5.49011,-1.61544 2.04885,-0.34454 2.26319,-0.50305 1.32291,-0.97838 -2.10378,-1.06352 -4.84354,-1.73183 -9.98802,-2.43636 -1.92529,-0.26366 -4.16425,-0.68715 -5.55625,-1.05098 -4.58546,-1.1984 -7.81187,-1.68978 -11.24479,-1.71254 -1.94836,-0.013 -3.41757,-0.17124 -4.44468,-0.47895 -0.84384,-0.25281 -1.91619,-0.45963 -2.383,-0.45963 -0.4668,0 -1.26465,-0.1274 -1.77302,-0.28308 -0.50837,-0.15568 -1.99586,-0.454 -3.30555,-0.66291 -1.30969,-0.20894 -2.91703,-0.48345 -3.57187,-0.61003 -1.86616,-0.3607 -5.40369,-1.68727 -5.67651,-2.12865 -0.0785,-0.127 -0.74676,-0.37584 -1.48508,-0.55295 -0.73829,-0.17711 -1.87878,-0.60725 -2.53439,-0.95583 -0.65563,-0.34862 -1.30294,-0.56531 -1.43846,-0.48155 -0.13552,0.0837 -0.31607,-0.0293 -0.40126,-0.2513 -0.0852,-0.22196 -0.38981,-0.47813 -0.67697,-0.56928 -0.28715,-0.0911 -0.90125,-0.49511 -1.36461,-0.89773 -0.46339,-0.40259 -1.49736,-0.94252 -2.29772,-1.19983 -1.63545,-0.52581 -2.74365,-1.13924 -4.53099,-2.5082 -0.67302,-0.51546 -1.55588,-1.17533 -1.96191,-1.46637 -0.40601,-0.29104 -0.888661,-0.67799 -1.072521,-0.8599 -0.18386,-0.1819 -0.50681,-0.33072 -0.71765,-0.33072 -0.21088,0 -0.5414,-0.1904 -0.73451,-0.42307 -0.441119,-0.53153 -3.314119,-2.75193 -3.5607394,-2.75193 -0.31094,0 -2.84276,-1.89736 -3.9581399,-2.96622 -0.58208,-0.5578 -1.7747501,-1.69617 -2.6503301,-2.52971 -0.87559,-0.83354 -2.35481995,-2.34897 -3.28715995,-3.36762 -0.93234,-1.01864 -1.49897005,-1.55442 -1.25918005,-1.19062 0.23977005,0.3638 0.80907005,1.37583 1.26511005,2.24896 0.45601,0.87312 0.90561,1.64703 0.99908995,1.71979 0.0935,0.0728 0.40407,0.60854 0.69019,1.19062 0.79587,1.61902 3.1833401,5.16258 4.3010401,6.38374 0.5497599,0.60063 1.6544199,1.85788 2.4547799,2.79392 1.5943504,1.86457 3.9971904,3.80587 6.4885094,5.24214 0.883441,0.50932 2.028611,1.25346 2.544791,1.65364 0.51617,0.40018 1.05084,0.72761 1.18814,0.72761 0.13726,0 0.6618,0.35234 1.16565,0.78298 0.50381,0.43066 1.01232,0.78785 1.12998,0.79375 0.11768,0.006 0.65347,0.35377 1.19062,0.77303 0.91496,0.71408 5.8106,2.41274 6.9537,2.41274 0.26072,0 0.53896,0.10501 0.61828,0.23336 0.0793,0.12835 0.94954,0.31864 1.93384,0.42288 0.98428,0.10425 1.90868,0.28131 2.0542,0.39346 0.14552,0.11213 1.18179,0.337 2.3028,0.4997 1.88936,0.27418 5.5554,1.32945 6.62329,1.9065 0.2527,0.13653 0.7562,0.24826 1.11892,0.24826 0.36272,0 1.46566,0.24419 2.451,0.54264 1.72005,0.52101 3.05773,0.8973 5.62795,1.58324 0.65484,0.17475 1.36922,0.38459 1.5875,0.4663 0.21828,0.0817 0.57547,0.17129 0.79375,0.1991 0.91077,0.1161 4.12226,0.99457 4.37785,1.19753 0.15224,0.12091 0.81819,0.26635 1.47989,0.32321 0.66167,0.0569 1.34649,0.19204 1.52178,0.30038 0.17531,0.10835 0.50249,0.12645 0.72713,0.0403 0.2246,-0.0862 1.08211,0.0111 1.90555,0.21646 0.82344,0.20524 2.15681,0.44926 2.96304,0.54224 0.80624,0.093 1.93734,0.337 2.51355,0.54223 1.36387,0.48578 1.74886,0.48207 3.02667,-0.0292 z m 21.7411,-4.00616 c 0.12568,-1.45854 -0.30318,-2.69766 -2.1291,-6.15156 -0.11538,-0.21828 -0.34737,-0.66477 -0.51551,-0.99219 -0.6753,-1.31503 -0.92956,-1.80933 -1.19095,-2.3151 -0.15041,-0.29104 -0.52138,-1.01354 -0.82438,-1.60552 -0.71697,-1.40078 -2.21811,-3.28927 -2.61459,-3.28927 -0.17105,0 -0.44955,-0.22186 -0.61886,-0.493 -1.20065,-1.92254 -1.50365,-0.79928 -0.39579,1.46714 0.55613,1.13771 1.29863,2.69364 1.64997,3.45763 0.35134,0.76398 0.72977,1.38906 0.84095,1.38906 0.11115,0 0.20211,0.1384 0.20211,0.30755 0,0.16917 0.36584,0.87768 0.81296,1.57448 0.58272,0.90805 0.90996,1.87262 1.15541,3.40545 0.39563,2.471 0.23606,2.2152 1.89503,3.03782 1.57414,0.7806 1.68224,0.79354 1.73275,0.20751 z m 24.570185,-1.05833 c 0.004,-0.47736 0.68863,-2.60141 0.99764,-3.09505 0.21952,-0.3507 0.23378,-0.4056 0.71414,-2.74854 0.21886,-1.06754 0.47781,-2.07021 0.57541,-2.22816 0.0976,-0.15793 0.15444,-1.27495 0.12626,-2.48224 -0.0282,-1.20727 0.0614,-2.40726 0.19902,-2.66663 0.2199,-0.41442 0.47559,-1.72448 1.37972,-7.06896 0.13023,-0.76988 0.12023,-1.42697 -0.0243,-1.60125 -0.13491,-0.16256 -0.18084,-0.54206 -0.10207,-0.84331 0.0788,-0.30125 -0.10481,-1.0922 -0.40794,-1.75765 -0.30316,-0.66546 -0.55118,-1.3117 -0.55118,-1.43611 0,-0.12441 -0.14639,-0.37259 -0.32533,-0.55152 -0.17894,-0.17891 -0.50636,-0.78055 -0.72761,-1.33694 -0.35803,-0.90035 -1.90605,-2.94145 -2.23088,-2.94145 -0.0687,0 -0.0556,0.82708 0.0291,1.83798 0.0883,1.05254 0.0164,2.53857 -0.16841,3.47731 -0.18968,0.96406 -0.2236,1.7055 -0.0823,1.80001 0.42833,0.28665 0.48492,4.79957 0.22185,17.68938 -0.0812,3.98026 -0.0352,6.41615 0.12113,6.41615 0.13864,0 0.25378,-0.20836 0.2559,-0.46302 z m -5.03092,-1.74186 c 0,-0.48506 0.0802,-0.96218 0.1783,-1.06024 0.0981,-0.0981 0.21469,-0.44535 0.25916,-0.77171 0.48639,-3.5688 0.62254,-5.32519 0.77404,-9.98609 0.14547,-4.47593 0.10425,-5.70145 -0.23595,-7.01146 -0.22673,-0.87312 -0.35756,-1.88515 -0.29075,-2.24895 0.21481,-1.16967 -0.28197,-1.54507 -1.06773,-0.80685 -0.37148,0.34896 -0.6754,0.77774 -0.6754,0.95284 0,0.1751 -0.1786,0.46659 -0.39688,0.64776 -0.21828,0.18113 -0.39687,0.60541 -0.39687,0.94281 0,0.3374 -0.10711,0.67964 -0.23799,0.76055 -0.13092,0.0809 -0.38198,0.74718 -0.55793,1.48066 -0.17595,0.73348 -0.45866,1.47799 -0.6282,1.65446 -1.23174,1.28215 -2.85496,4.5039 -2.73407,5.42663 0.19417,1.48212 0.94125,3.27756 1.69235,4.06715 0.5643,0.59322 2.995,5.22957 2.995,5.71273 0,0.24876 0.85553,1.12167 1.09935,1.12167 0.12295,0 0.22357,-0.39687 0.22357,-0.88196 z m 26.59064,-0.84127 c 0.58208,-0.19907 1.53352,-0.43246 2.11433,-0.51869 0.58082,-0.0862 1.47379,-0.38394 1.98438,-0.66162 0.51059,-0.27768 1.46415,-0.76676 2.11899,-1.08682 0.65485,-0.32007 1.23032,-0.68427 1.27882,-0.80934 0.0485,-0.12507 0.25688,-0.22738 0.46302,-0.22738 0.20616,0 0.37483,-0.10615 0.37483,-0.23588 0,-0.337 1.9879,-1.08704 2.8811,-1.08704 0.41458,0 1.81115,-0.18462 3.10351,-0.41029 1.29236,-0.22566 3.24273,-0.46643 4.33414,-0.53506 2.45552,-0.15442 3.80161,-0.57963 7.67292,-2.42372 4.71411,-2.24557 4.84351,-2.32204 7.09157,-4.19113 0.53803,-0.44731 1.95395,-1.50527 3.14651,-2.35104 1.75847,-1.24708 2.82016,-2.25959 2.36934,-2.25959 -0.42444,0 -3.23379,0.97329 -4.25887,1.4755 -0.71977,0.35264 -1.54477,0.64117 -1.83329,0.64117 -0.54221,0 -1.82621,0.37277 -3.20797,0.93141 -0.43656,0.17647 -1.44859,0.53324 -2.24896,0.79277 -0.80036,0.25956 -2.11005,0.79788 -2.91042,1.19629 -0.80036,0.39843 -2.14958,0.92249 -2.99825,1.16461 -0.84871,0.24212 -2.1584,0.7248 -2.91042,1.07265 -0.75205,0.34782 -2.49846,1.06151 -3.88091,1.58597 -1.38245,0.52443 -3.18254,1.35038 -4.00018,1.83544 -0.81764,0.48503 -1.94874,1.0328 -2.51354,1.21726 -0.56481,0.18445 -1.56269,0.60167 -2.21753,0.92713 -0.65484,0.32547 -1.905,0.91382 -2.77812,1.30744 -1.72601,0.77811 -1.81547,0.82791 -3.57188,1.98874 -0.65484,0.43278 -1.39197,0.78915 -1.63803,0.79192 -0.24607,0.003 -0.51988,0.1223 -0.60847,0.26562 -0.19595,0.31702 1.14557,0.11589 2.64338,-0.39632 z m -53.482465,-0.26114 c -0.0838,-0.21828 -0.2586,-0.39688 -0.38856,-0.39688 -0.12997,0 -0.21738,-0.0893 -0.19429,-0.19844 0.0469,-0.22145 -0.16107,-0.83306 -0.72276,-2.12566 -0.20767,-0.47786 -0.37756,-1.03431 -0.37756,-1.2365 0,-0.2022 -0.38695,-0.88276 -0.85992,-1.51236 -0.47294,-0.62963 -1.08831,-1.79959 -1.36747,-2.59995 -1.00145,-2.87113 -2.38808,-4.38344 -4.18876,-4.56841 -1.2918,-0.13271 -1.54146,0.034 -0.8769,0.58553 0.20894,0.1734 0.4622,0.69008 0.56282,1.14818 0.10062,0.45813 0.27297,1.01545 0.38301,1.23849 0.11004,0.22307 0.32533,0.70324 0.47842,1.06704 0.69011,1.63991 1.40801,3.10568 1.87896,3.83646 0.28136,0.43656 0.52028,1.0242 0.53092,1.30585 0.0198,0.52488 0.99229,1.73686 1.39364,1.73686 0.12303,0 0.72736,0.32498 1.34294,0.72218 2.30418,1.48682 2.64795,1.62938 2.40551,0.99761 z m -12.58712,-1.02241 c -0.24911,-0.18925 -1.10054,-0.48903 -1.89207,-0.66614 -1.09302,-0.24463 -1.79988,-0.63775 -2.93917,-1.63473 -0.82503,-0.72196 -1.84883,-1.49301 -2.27513,-1.71346 -0.4263,-0.22045 -0.7751,-0.51549 -0.7751,-0.65567 0,-0.26527 -3.68749,-2.24972 -5.27992,-2.84138 -0.50286,-0.18685 -1.15771,-0.54711 -1.4552,-0.80055 -0.51319,-0.43723 -1.29964,-0.83902 -3.71592,-1.89847 -0.58208,-0.25522 -1.59411,-0.71985 -2.24896,-1.03251 -0.65484,-0.31266 -1.44399,-0.56814 -1.75363,-0.56772 -0.30964,0 -1.02401,-0.19222 -1.5875,-0.42801 -0.56348,-0.23583 -1.38168,-0.47199 -1.81824,-0.52483 -2.23877,-0.27088 -5.64602,-0.89051 -6.32132,-1.14959 -0.42079,-0.16142 -1.49236,-0.27532 -2.38125,-0.2531 -0.88889,0.0222 -2.36032,-0.14237 -3.26983,-0.36571 -2.58929,-0.63587 -2.32547,-0.30607 2.03042,2.53818 1.8103,1.18205 1.88939,1.23341 3.72427,2.41932 1.87219,1.21002 4.54697,2.49153 4.90979,2.35231 0.36942,-0.14177 2.11797,0.53403 5.27667,2.03933 1.16417,0.55477 2.47385,1.09299 2.91042,1.19599 0.43656,0.10303 0.91281,0.27766 1.05833,0.38809 0.14552,0.11041 0.80036,0.34523 1.45521,0.52181 0.65484,0.17656 1.42875,0.41937 1.71979,0.53952 0.69673,0.28768 3.39262,0.90151 6.35,1.44584 1.30969,0.24106 2.75905,0.55361 3.2208,0.69458 0.84804,0.25887 3.62968,0.66953 4.84899,0.71586 0.5973,0.0228 0.61754,-0.008 0.20855,-0.31896 z m 54.824785,-2.71108 c 0,-0.20216 0.0989,-0.36755 0.21987,-0.36755 0.12094,0 0.38585,-0.32743 0.58867,-0.72761 0.20283,-0.40018 0.63969,-1.06418 0.97076,-1.47553 0.33107,-0.41135 0.60195,-0.90744 0.60195,-1.10241 0,-0.195 0.10012,-0.39423 0.22247,-0.44273 0.29461,-0.11678 2.15878,-2.79363 2.15878,-3.09988 0,-0.13145 0.16114,-0.30083 0.35807,-0.3764 0.19695,-0.0756 0.62243,-0.65386 0.94551,-1.28508 0.32308,-0.63122 0.7275,-1.2691 0.89868,-1.41753 0.32012,-0.27755 0.97274,-1.33665 0.97274,-1.57864 0,-0.48162 -1.7854,0.21458 -2.19596,0.85633 -0.11636,0.1819 -0.37933,0.33073 -0.58433,0.33073 -0.39222,0 -2.7622,2.35336 -3.52155,3.49683 -0.24477,0.3686 -0.66961,0.98658 -0.94406,1.3733 -1.1993,1.68981 -2.36286,8.10588 -1.23471,6.80836 0.29872,-0.34356 0.54311,-0.79004 0.54311,-0.99219 z m 45.33768,0.45834 c 0.26993,-0.23598 0.52038,-0.36949 0.55658,-0.29673 0.0746,0.14997 0.96329,-0.47056 2.7473,-1.91823 0.67249,-0.5457 1.35525,-0.99218 1.51725,-0.99218 0.16201,0 1.01,-0.46242 1.88442,-1.02759 0.87442,-0.56515 2.02396,-1.23357 2.55455,-1.48535 0.5306,-0.25178 0.96472,-0.55525 0.96472,-0.67439 0,-0.11915 0.24419,-0.29412 0.54266,-0.38884 0.29848,-0.0947 0.88797,-0.48971 1.31004,-0.87772 0.42203,-0.38804 1.25264,-1.06268 1.84576,-1.49924 0.59314,-0.43656 1.22401,-0.9131 1.40197,-1.05899 0.17793,-0.14587 0.77536,-0.50306 1.3276,-0.79375 0.55221,-0.29068 1.37925,-0.91546 1.83782,-1.38841 0.45858,-0.47294 0.98801,-0.85989 1.17653,-0.85989 0.18848,0 0.49143,-0.23813 0.6732,-0.52917 0.18174,-0.29104 0.4259,-0.52916 0.54256,-0.52916 0.11668,0 0.35591,-0.11999 0.53168,-0.26663 0.17576,-0.14663 1.06841,-0.85264 1.98368,-1.5689 0.91528,-0.71628 2.66878,-2.31605 3.89665,-3.55507 1.22791,-1.23899 3.15796,-2.92669 4.28901,-3.75047 1.13106,-0.82375 2.47319,-1.93365 2.98251,-2.46644 0.50932,-0.5328 2.22573,-1.91929 3.81421,-3.08113 4.01611,-2.9374 4.78583,-3.65538 3.72642,-3.47596 -1.00931,0.17092 -1.78705,0.50937 -3.43959,1.49685 -0.7276,0.43476 -1.50151,0.86133 -1.71979,0.9479 -0.91572,0.36316 -1.60721,0.74866 -2.05192,1.14392 -0.26035,0.23138 -1.30416,0.98023 -2.31958,1.6641 -1.01542,0.68387 -2.38199,1.76075 -3.03683,2.39308 -3.06718,2.96172 -4.78655,4.24669 -7.90985,5.91148 -0.34859,0.18581 -1.06297,0.74329 -1.5875,1.23883 -0.52454,0.49556 -1.46392,1.22219 -2.08749,1.61475 -0.62359,0.39256 -1.82438,1.37467 -2.6684,2.18247 -0.84402,0.80782 -1.96125,1.72641 -2.48272,2.04134 -1.54074,0.93046 -3.92165,2.57281 -5.62133,3.87757 -0.87313,0.67027 -1.94469,1.44307 -2.38125,1.71733 -0.43657,0.27427 -0.9293,0.62566 -1.09493,0.7809 -0.49882,0.46736 -2.74055,2.16045 -5.06304,3.82389 -2.18921,1.56797 -2.18921,1.56797 -1.19062,2.06988 1.05058,0.52806 1.55897,0.44424 2.54772,-0.42005 z m -35.7487,-0.29956 c 0.31872,-0.29694 1.20145,-0.82463 1.96162,-1.17263 0.76015,-0.34804 1.53697,-0.88075 1.72628,-1.18385 0.18928,-0.30311 0.50551,-0.5511 0.7027,-0.5511 0.19722,0 0.67458,-0.16407 1.06085,-0.36457 2.91835,-1.51498 5.06246,-2.54585 5.29508,-2.54585 0.1515,0 0.78745,-0.34224 1.41322,-0.76049 0.62574,-0.41828 1.43539,-0.85212 1.79919,-0.96409 1.14536,-0.35251 5.67465,-2.84107 6.48229,-3.56164 0.6544,-0.5838 3.0534,-1.85753 3.49861,-1.85753 0.18032,0 1.07421,-0.34867 1.9865,-0.77478 0.91225,-0.42614 2.52724,-0.9225 3.58888,-1.10305 1.06164,-0.18055 1.99139,-0.42722 2.06614,-0.54814 0.0747,-0.12094 0.41195,-0.21986 0.74935,-0.21986 0.33739,0 0.7485,-0.16275 0.91358,-0.36166 0.16507,-0.19892 0.98332,-0.57203 1.81832,-0.82918 0.83503,-0.25712 1.70302,-0.62733 1.92892,-0.82264 0.2259,-0.19535 0.64262,-0.399 0.92604,-0.45257 1.0074,-0.1905 2.10667,-0.52015 2.36741,-0.70993 0.39169,-0.28515 1.62261,-0.51597 3.70417,-0.69464 1.01865,-0.0874 1.97866,-0.26046 2.13333,-0.38449 0.15471,-0.12404 0.72179,-0.28014 1.26022,-0.34693 0.88836,-0.11019 2.52314,-1.14456 3.31292,-2.09618 0.2608,-0.31425 0.1033,-0.3157 -1.07529,-0.0101 -0.75949,0.19701 -1.7063,0.3582 -2.10407,0.3582 -0.39775,0 -1.41359,0.1901 -2.25743,0.42243 -0.84386,0.23233 -1.95098,0.5099 -2.46031,0.61682 -0.50932,0.10689 -1.28322,0.37714 -1.71979,0.60053 -0.43656,0.22339 -1.24507,0.48792 -1.79668,0.58782 -0.5516,0.0999 -1.54373,0.41349 -2.20474,0.69684 -0.66101,0.28331 -1.40031,0.51564 -1.64291,0.51625 -0.24259,0 -1.02682,0.29827 -1.7427,0.66146 -0.71588,0.36319 -1.60885,0.66043 -1.98438,0.66048 -0.37552,8e-5 -1.27807,0.22447 -2.00567,0.49863 -0.7276,0.27416 -1.82832,0.58214 -2.44602,0.68435 -0.6177,0.10223 -1.19028,0.29456 -1.27238,0.4274 -0.0821,0.13288 -0.35793,0.24157 -0.61296,0.24157 -0.25501,0 -0.72612,0.24453 -1.04688,0.54337 -0.53075,0.49446 -3.33735,1.90466 -5.98461,3.00699 -0.57425,0.23913 -1.46608,0.75851 -1.98186,1.1542 -0.51578,0.39568 -1.17703,0.85169 -1.46944,1.01335 -2.48952,1.37636 -4.07811,2.16268 -4.65588,2.30457 -0.37655,0.0925 -1.02841,0.4386 -1.44856,0.76917 -0.98558,0.77542 -3.55061,2.32088 -3.85202,2.32088 -0.12787,0 -0.46212,0.20835 -0.74271,0.46302 -0.92022,0.8351 -1.3163,1.12448 -1.53916,1.12448 -0.12078,0 -0.63183,0.35234 -1.13565,0.78298 -0.50382,0.43066 -1.03775,0.78785 -1.18649,0.79375 -0.37106,0.0148 -2.24309,1.58004 -2.24309,1.87555 0,0.34742 1.23389,-0.17373 1.91606,-0.80928 z m 44.75221,0.48768 c 0.59896,-0.16989 1.48656,-0.60074 1.97244,-0.95745 0.88757,-0.65161 3.48681,-1.72767 3.68779,-1.5267 0.20061,0.20061 2.56876,-0.94165 3.234,-1.55987 0.3638,-0.33809 0.95912,-0.70316 1.32292,-0.81124 1.26867,-0.37693 3.82153,-1.78454 4.48836,-2.47481 0.36949,-0.38248 1.49934,-1.40978 2.51079,-2.2829 1.01145,-0.87313 2.95556,-2.65907 4.3202,-3.96875 1.36464,-1.30969 2.76934,-2.53389 3.12153,-2.72045 0.35221,-0.18653 0.64037,-0.44426 0.64037,-0.57269 0,-0.30803 4.2146,-4.51207 4.52339,-4.51207 0.1315,0 0.23911,-0.0951 0.23911,-0.2113 0,-0.1162 0.503,-0.73475 1.11776,-1.37456 1.03502,-1.07715 3.16079,-3.74587 3.77703,-4.74173 0.14552,-0.23519 0.592,-0.85368 0.99219,-1.37446 0.98343,-1.27979 0.89826,-2.17958 -0.11623,-1.22764 -0.19384,0.1819 -0.88697,0.79552 -1.54025,1.36364 -3.63006,3.15669 -4.5575,4.00883 -7.57195,6.95714 -1.81496,1.77517 -3.53203,3.30123 -3.81572,3.39127 -0.28366,0.09 -0.518,0.24497 -0.52075,0.3443 -0.003,0.0993 -0.61423,0.53782 -1.35887,0.97438 -0.74462,0.43656 -1.79859,1.1807 -2.34217,1.65365 -0.54356,0.47294 -1.07249,0.85989 -1.17536,0.85989 -0.1029,0 -0.62423,0.46837 -1.15856,1.04082 -0.53433,0.57243 -1.3498,1.31657 -1.81216,1.65365 -0.77824,0.56732 -3.14367,2.43414 -4.04556,3.19272 -0.21354,0.17965 -0.77959,0.53637 -1.25788,0.79269 -0.47826,0.25633 -1.08704,0.67392 -1.35281,0.92798 -0.55309,0.52869 -5.44174,4.2963 -6.0923,4.69527 -0.2373,0.14552 -0.96774,0.69228 -1.62319,1.21504 -0.65548,0.52277 -1.42989,1.08472 -1.72093,1.24873 -0.75094,0.42325 0.0736,0.42614 1.55681,0.006 z M 43.838935,264.06698 c -0.5334,-0.36197 -1.29415,-0.73871 -1.69055,-0.83719 -0.39643,-0.0985 -1.58396,-0.64077 -2.63898,-1.20512 -1.05503,-0.56436 -1.91823,-0.93928 -1.91823,-0.83312 0,0.10615 -0.32742,-0.10965 -0.72761,-0.47954 -0.40018,-0.36991 -1.56104,-1.05814 -2.57968,-1.52945 -3.3523,-1.55101 -3.67081,-1.72362 -5.15179,-2.7918 -3.48443,-2.51325 -4.75757,-3.04271 -7.31644,-3.04271 -1.35472,0 -2.28338,-0.12933 -2.6203,-0.36486 -0.28705,-0.20069 -0.93861,-0.60113 -1.44793,-0.88992 -0.50933,-0.2888 -1.66045,-0.95803 -2.558071,-1.48723 -0.8976,-0.52919 -1.721669,-0.96215 -1.831239,-0.96215 -0.10959,0 -0.4177,-0.19773 -0.68471,-0.43937 -0.6414,-0.58044 -0.81926,-0.36597 -0.26101,0.31477 0.4564,0.55658 3.93625,3.31555 6.08737,4.82632 0.67762,0.47591 1.64875,1.21703 2.15807,1.64698 0.50933,0.42992 1.28323,0.95208 1.7198,1.1603 0.43656,0.20826 1.56765,0.74816 2.51354,1.19981 0.94588,0.45167 2.07698,0.93022 2.51354,1.06344 0.43656,0.13324 1.4469,0.48929 2.24523,0.79123 0.7983,0.30195 1.71399,0.54902 2.03491,0.54902 0.32088,0 0.64852,0.1053 0.72808,0.23405 0.0796,0.12872 0.71009,0.31884 1.40118,0.42248 0.69109,0.10364 1.57043,0.35073 1.95408,0.54914 0.38364,0.19839 0.74591,0.31235 0.80502,0.25324 0.0591,-0.0591 1.29461,0.31194 2.74553,0.82455 2.62112,0.92601 4.80414,1.61633 5.25465,1.6616 0.12946,0.013 -0.20106,-0.27249 -0.73446,-0.63447 z m 32.63792,-0.83415 c -0.82299,-1.86552 -1.31829,-2.73825 -2.24039,-3.94769 -0.4505,-0.59089 -1.09773,-1.83859 -1.4383,-2.77262 -1.12982,-3.09864 -2.53151,-5.39377 -4.42166,-7.24006 -0.70348,-0.68717 -3.24586,-2.93121 -3.84096,-3.39024 -0.24199,-0.18666 -0.66495,-0.69656 -0.93993,-1.13313 -0.55497,-0.88109 -2.1926,-2.68292 -5.76382,-6.34174 -1.49357,-1.53019 -2.5196,-2.82483 -2.75238,-3.47292 -0.2041,-0.5683 -0.93033,-1.6881 -1.61382,-2.48846 -0.6835,-0.80037 -1.60883,-1.99938 -2.05629,-2.66446 -0.44747,-0.66506 -2.13225,-2.55254 -3.74396,-4.19436 -1.61174,-1.64182 -2.93042,-3.08753 -2.93042,-3.21268 0,-0.12515 -0.98523,-1.45238 -2.18938,-2.94939 -1.20414,-1.49701 -2.41665,-3.07901 -2.69446,-3.51557 -0.27781,-0.43656 -1.05495,-1.38906 -1.72694,-2.11667 -0.67201,-0.7276 -1.43269,-1.65938 -1.69042,-2.0706 -0.2577,-0.41121 -1.20404,-1.52011 -2.10296,-2.4642 -0.89892,-0.94408 -1.84301,-2.09592 -2.09801,-2.55963 -0.49721,-0.90416 -3.85318,-4.41494 -4.22024,-4.41494 -0.40325,0 0.89165,4.0659 1.39369,4.37621 0.1361,0.0841 0.24747,0.38777 0.24747,0.67479 0,0.28702 0.19296,0.59589 0.42881,0.68641 0.3852,0.14779 1.54747,1.32334 3.20222,3.23884 0.32359,0.37457 1.4759,1.65918 2.56069,2.85467 1.08477,1.19552 2.36218,2.74333 2.83867,3.43958 0.47646,0.69628 1.02261,1.42508 1.21364,1.61957 0.191,0.1945 0.67207,0.78981 1.069,1.32292 0.39695,0.53311 1.25833,1.64343 1.91423,2.4674 1.22121,1.53413 2.91655,3.839 4.42092,6.01038 0.46593,0.67252 1.09477,1.52043 1.39743,1.88423 5.75021,6.91192 6.24869,7.54832 8.33556,10.6421 0.65985,0.97819 2.14969,2.7234 3.31073,3.87823 1.16105,1.1548 2.23306,2.37853 2.38223,2.71936 0.32261,0.73708 0.60428,1.16888 3.10113,4.75393 1.69749,2.43734 3.0299,4.03595 5.59573,6.71367 0.41833,0.43656 1.09685,1.42759 1.50786,2.20229 0.82057,1.54667 1.63618,2.25406 3.03289,2.63046 1.18396,0.31906 1.17522,0.33893 0.51144,-1.16568 z m 65.101895,-3.12671 c 1.24042,-0.73377 2.55011,-1.47892 2.91042,-1.6559 1.49638,-0.73498 3.78703,-1.66258 4.10559,-1.66258 0.18804,0 0.38158,-0.0915 0.43011,-0.20323 0.13493,-0.31094 2.61763,-1.79128 3.66006,-2.18236 0.50932,-0.19109 1.10463,-0.4902 1.32291,-0.66472 0.21829,-0.17452 1.34938,-0.82835 2.51355,-1.45301 1.16416,-0.62463 2.40008,-1.3548 2.7465,-1.62258 0.34642,-0.26781 1.12033,-0.61736 1.7198,-0.77677 0.59946,-0.15943 1.46896,-0.57655 1.93219,-0.92694 0.46324,-0.35039 0.9121,-0.63706 0.99748,-0.63706 0.0854,0 1.14837,-0.47625 2.3622,-1.05833 1.21383,-0.58209 2.43184,-1.05908 2.70669,-1.05998 0.27485,0 0.84074,-0.17949 1.25757,-0.39687 0.41682,-0.21739 1.07762,-0.39524 1.46843,-0.39524 0.39082,0 0.8237,-0.10244 0.96195,-0.22762 0.13824,-0.12517 1.14432,-0.43728 2.23573,-0.69353 1.81649,-0.42653 4.81901,-1.46722 7.14375,-2.47612 0.50932,-0.22104 1.2237,-0.44699 1.5875,-0.50213 1.31566,-0.19939 3.42741,-1.3457 2.51354,-1.36443 -1.47873,-0.0303 -10.18268,0.831 -11.24479,1.11273 -0.3638,0.0965 -1.34604,0.23379 -2.18276,0.30507 -0.83672,0.0712 -1.78922,0.3049 -2.11667,0.51921 -0.32745,0.21432 -1.13115,0.47512 -1.78599,0.57957 -0.65484,0.10449 -1.54781,0.4077 -1.98437,0.67387 -0.43657,0.26615 -1.04902,0.48435 -1.36102,0.48488 -0.31202,0 -1.91397,0.59631 -3.55994,1.32392 -1.64595,0.7276 -3.21736,1.32292 -3.49203,1.32292 -0.27466,0 -0.80211,0.23812 -1.1721,0.52916 -0.37002,0.29104 -0.88778,0.52917 -1.15062,0.52917 -0.26281,0 -0.55145,0.11906 -0.64138,0.26458 -0.0899,0.14552 -0.39446,0.26459 -0.67672,0.26459 -0.48451,0 -4.95083,1.84591 -5.80557,2.39945 -0.21828,0.14134 -0.78224,0.43413 -1.25322,0.65064 -0.47099,0.21648 -1.4854,1.01777 -2.25425,1.78061 -1.43762,1.4264 -2.12503,1.95448 -2.87849,2.21139 -0.23807,0.0812 -0.53572,0.36457 -0.66145,0.62979 -0.12576,0.26522 -1.16078,1.46254 -2.30008,2.66068 -1.96678,2.06838 -2.22258,2.44181 -2.68198,3.91533 -0.21933,0.70352 -0.51572,0.84431 4.62746,-2.19816 z m -77.264665,-2.81411 c 0,-0.33142 -0.21256,-0.60952 -0.52916,-0.69231 -0.29104,-0.0761 -0.52917,-0.22923 -0.52917,-0.34028 0,-0.11102 -0.53578,-0.89186 -1.19062,-1.73516 -0.65485,-0.84331 -1.19063,-1.65174 -1.19063,-1.79652 0,-0.14476 -0.54255,-0.98716 -1.20568,-1.87198 -2.94502,-3.92965 -4.6155,-6.37151 -4.61954,-6.75286 -0.003,-0.22667 -0.65853,-1.12651 -1.45802,-1.99964 -1.61538,-1.76414 -4.24841,-5.36472 -4.6007,-6.29132 -0.12526,-0.32945 -0.77685,-1.27309 -1.44794,-2.09695 -0.67111,-0.82386 -1.2202,-1.57811 -1.2202,-1.67614 0,-0.19611 -1.372,-1.9939 -2.3113,-3.02858 -0.32829,-0.36165 -1.0423,-1.31415 -1.58662,-2.11666 -0.54436,-0.80251 -1.0549,-1.51863 -1.13456,-1.59139 -0.46877,-0.42818 -2.05351,-2.61639 -2.29939,-3.175 -0.32089,-0.72903 -1.9698,-2.71627 -2.95489,-3.56116 -1.31578,-1.12853 -1.81026,-1.6406 -1.94107,-2.01015 -0.0743,-0.21 -0.23529,-0.28805 -0.35769,-0.17346 -0.28524,0.2671 1.78321,4.45072 2.89714,5.8597 0.46773,0.59164 1.0828,1.53512 1.36681,2.09667 0.284,0.56152 0.96284,1.53231 1.50855,2.15725 0.5457,0.62497 0.99218,1.25227 0.99218,1.39404 0,0.14174 0.18217,0.40891 0.40479,0.59367 0.22265,0.18479 0.73586,1.00304 1.14049,1.81835 1.06545,2.1468 1.70756,3.11142 2.47107,3.71197 0.37097,0.29184 0.8304,0.92157 1.0209,1.39946 0.1905,0.47787 0.53403,1.05945 0.7634,1.29241 1.1662,1.18433 1.96337,2.23449 2.35924,3.10798 0.79626,1.75694 1.70309,3.06502 3.06451,4.42037 0.73882,0.73552 1.64097,1.92334 2.00477,2.63956 0.3638,0.71626 1.17504,1.9004 1.80274,2.63144 2.19686,2.55852 3.31348,4.0421 3.88797,5.16565 0.51089,0.99912 0.88845,1.33305 2.75458,2.43628 1.48968,0.88067 2.13804,0.93671 2.13804,0.18476 z m 19.6686,-6.32521 c -0.41204,-0.43656 -0.93946,-0.79375 -1.17205,-0.79375 -0.23257,0 -0.63836,-0.23812 -0.90175,-0.52916 -0.2634,-0.29105 -0.59693,-0.52917 -0.74118,-0.52917 -0.14425,0 -0.86995,-0.55052 -1.61264,-1.22338 -0.74268,-0.67284 -2.00519,-1.81631 -2.80556,-2.54101 -2.28925,-2.07282 -6.60612,-5.11664 -8.20208,-5.78329 -0.80037,-0.33432 -1.90749,-0.88783 -2.46026,-1.23007 -2.39011,-1.47971 -2.83866,-1.279 -1.53455,0.68667 1.08214,1.63113 3.17391,3.55264 4.63999,4.26236 0.68726,0.33269 1.3122,0.76822 1.38883,0.96785 0.0766,0.19962 0.29855,0.36295 0.49326,0.36295 0.19471,0 0.83894,0.51739 1.43163,1.14975 0.97904,1.04455 2.04166,1.68944 4.80203,2.9143 0.52568,0.23326 1.1058,0.6049 1.28919,0.82585 0.18338,0.22098 0.50117,0.40177 0.7062,0.40177 0.20502,0 0.44132,0.17859 0.52509,0.39687 0.0878,0.22884 0.50435,0.40585 0.98388,0.41807 0.45736,0.0116 1.42689,0.23493 2.1545,0.49612 1.82462,0.65503 1.86319,0.64543 1.01547,-0.25273 z m 24.398385,-4.04908 c 0.50171,-0.84455 0.91218,-1.64822 0.91218,-1.78593 0,-0.13775 0.11906,-0.2504 0.26458,-0.2504 0.14553,0 0.26459,-0.14116 0.26459,-0.31369 0,-0.17251 0.22397,-0.55947 0.49768,-0.8599 0.58145,-0.63812 2.9419,-4.0844 2.9419,-4.29517 0,-0.079 0.35719,-0.59465 0.79375,-1.14583 0.88636,-1.11913 0.98229,-1.63081 0.39688,-2.11666 -0.21829,-0.18117 -0.39688,-0.42471 -0.39688,-0.54124 0,-0.11649 -0.33774,-0.54954 -0.75052,-0.96231 -0.41275,-0.41278 -0.80684,-0.91961 -0.87574,-1.12631 -0.18465,-0.55396 -1.01957,-0.13758 -1.01957,0.50845 0,0.29761 -0.10872,0.74782 -0.24159,1.0005 -0.13288,0.2527 -0.55685,1.17382 -0.94218,2.04695 -0.38532,0.87312 -1.04122,2.30187 -1.45757,3.175 -0.41635,0.87312 -0.84037,1.88515 -0.94228,2.24896 -0.10192,0.3638 -0.27462,0.78052 -0.38376,0.92604 -0.25363,0.33819 -1.75133,5.26169 -1.97186,6.48229 -0.21518,1.19084 1.43166,-0.50144 2.91039,-2.99075 z m -14.682305,1.08924 c 0.31255,-0.10419 0.30189,-0.19973 -0.0631,-0.56475 -0.24164,-0.24162 -0.58451,-0.88691 -0.76197,-1.43394 -0.17743,-0.54702 -0.54422,-1.31064 -0.81505,-1.6969 -0.27085,-0.38627 -0.49244,-0.87771 -0.49244,-1.0921 0,-0.21436 -0.17373,-0.53395 -0.38606,-0.71017 -0.34028,-0.28239 -2.78894,-5.05925 -2.78894,-5.44068 0,-0.0812 -0.2989,-0.46987 -0.66424,-0.8637 -0.36531,-0.39383 -0.60552,-0.86921 -0.53377,-1.0564 0.0717,-0.1872 -0.0443,-0.84204 -0.25797,-1.45521 -0.21362,-0.61317 -0.39015,-1.28408 -0.39227,-1.4909 -0.003,-0.20683 -0.16184,-0.56401 -0.35494,-0.79375 -0.55607,-0.66154 -1.19451,-3.36323 -1.47426,-6.23853 -0.1416,-1.45521 -0.4962,-3.36021 -0.788,-4.23334 -0.29181,-0.87312 -0.65588,-2.89718 -0.80907,-4.49791 -0.59193,-6.18556 -0.8531,-7.91155 -1.51392,-10.0048 -0.37608,-1.19131 -0.84802,-2.40091 -1.04873,-2.68795 -0.20072,-0.28702 -0.3632,-0.70374 -0.36108,-0.92605 0.003,-0.22227 -0.2291,-1.17803 -0.51379,-2.12391 -0.28467,-0.94589 -0.71829,-2.43417 -0.96359,-3.30729 -0.53044,-1.8881 -1.36636,-3.97841 -1.95747,-4.89479 -0.57904,-0.89768 -2.45181,-5.94167 -2.91502,-7.85114 -0.11202,-0.46181 -0.44675,-1.18097 -0.74377,-1.59811 -0.29705,-0.41717 -0.79811,-1.5276 -1.1135,-2.46764 -0.31538,-0.94004 -0.72818,-1.88775 -0.91739,-2.10603 -0.1892,-0.21828 -0.66164,-0.99219 -1.04989,-1.71979 -1.81012,-3.39225 -2.59948,-4.81306 -3.01032,-5.41854 -0.24482,-0.36083 -0.92139,-1.60655 -1.50347,-2.76828 -1.58171,-3.15679 -1.821,-2.93158 -2.65486,2.49828 -0.23466,1.52797 -0.5902,3.37344 -0.7901,4.10104 -0.19991,0.7276 -0.50339,2.21588 -0.67439,3.30729 -0.29925,1.90963 -0.39016,2.39067 -1.04283,5.51728 -0.16259,0.7789 -0.22953,1.48232 -0.14872,1.56315 0.0808,0.0808 0.0124,0.30888 -0.15177,0.50681 -0.16428,0.19796 -0.39346,0.80423 -0.50927,1.34726 -0.11583,0.54306 -0.3465,1.46362 -0.5126,2.04571 -0.4958,1.73733 -0.24149,3.33563 0.98938,6.21771 0.21752,0.50932 0.54758,1.46182 0.73345,2.11666 0.54568,1.92249 1.94861,5.62711 2.24211,5.92061 0.14885,0.14885 0.27064,0.44577 0.27064,0.65982 0,0.21407 0.341,1.11299 0.75777,1.9976 0.41677,0.88464 0.95573,2.04983 1.19769,2.58937 0.24198,0.53951 0.55583,1.05257 0.69744,1.14009 0.14163,0.0875 0.25752,0.37566 0.25752,0.64029 0,0.26464 0.17544,0.62678 0.38986,0.80473 0.21445,0.17796 0.46434,0.72054 0.55539,1.20574 0.091,0.48519 0.39182,1.08698 0.66844,1.33733 0.27662,0.25035 0.50297,0.55682 0.50297,0.68104 0,0.12422 0.35719,0.71895 0.79375,1.32162 0.43657,0.60264 0.79375,1.18901 0.79375,1.30302 0,0.19767 1.57261,2.87597 1.85127,3.15291 0.0732,0.0728 0.54504,0.7276 1.04851,1.45521 0.50351,0.7276 1.00952,1.3626 1.12448,1.4111 0.11499,0.0485 0.20908,0.21585 0.20908,0.3719 0,0.15602 0.27927,0.65212 0.62063,1.10244 0.34134,0.45029 0.83312,1.26931 1.09281,1.82004 0.25971,0.55073 0.69479,1.12048 0.96687,1.26608 0.27207,0.1456 0.49469,0.39815 0.49469,0.56118 0,0.16307 0.29765,0.6867 0.66146,1.16367 0.3638,0.47699 0.66145,0.95133 0.66145,1.05415 0,0.10282 0.16301,0.31912 0.36225,0.48067 0.74022,0.60026 3.75234,4.29017 4.12747,5.05627 0.21378,0.43656 0.86863,1.34088 1.45521,2.00961 1.51426,1.72628 2.31465,2.79466 2.89031,3.85792 0.27545,0.50885 0.7517,1.02304 1.05833,1.14268 0.3066,0.11967 0.93588,0.35838 1.39835,0.53049 1.42224,0.5293 1.34575,1.79515 -0.0882,1.45902 -0.84502,-0.19809 -0.53625,0.62778 0.72575,1.94114 0.56931,0.59248 1.03511,1.17708 1.03511,1.29911 0,0.68971 0.64296,0.81137 1.18681,0.22455 0.31327,-0.33801 0.73888,-0.67101 0.94578,-0.73999 z m 4.2577,-2.66255 c 0.0437,-0.35894 0.12661,-0.7456 0.22683,-1.05834 0.035,-0.10914 0.0888,-0.28773 0.11954,-0.39687 0.0307,-0.10914 0.12517,-0.37703 0.20984,-0.59531 0.17145,-0.44199 0.35647,-2.69878 0.70504,-8.59896 0.18991,-3.21472 0.18835,-6.37469 -0.006,-11.37709 -0.006,-0.14552 0.0116,-1.38491 0.0386,-2.75418 0.0451,-2.29462 0.003,-2.52436 -0.54039,-2.93407 -0.52046,-0.39256 -0.57951,-0.64272 -0.50551,-2.14064 0.11057,-2.23832 -0.76845,-11.91802 -1.22322,-13.47006 -0.064,-0.21829 -0.18547,-1.40891 -0.27003,-2.64584 -0.36949,-5.40589 -1.6455,-12.5281 -3.53695,-19.74217 -0.15703,-0.59897 -0.28552,-1.37499 -0.28552,-1.7245 0,-0.34952 -0.29765,-1.07355 -0.66145,-1.60893 -0.36381,-0.53539 -0.66146,-1.12898 -0.66146,-1.31911 0,-0.28147 -1.43936,-1.71487 -4.86566,-4.84555 -0.16153,-0.14762 -0.8295,-0.68033 -1.48434,-1.1838 -0.65485,-0.50348 -1.25016,-0.98669 -1.32292,-1.07381 -0.0728,-0.0872 -0.31089,-0.23913 -0.52917,-0.33774 -0.21828,-0.0986 -1.11125,-0.71062 -1.98437,-1.35999 -0.87313,-0.64937 -2.54,-1.67547 -3.70417,-2.28021 -1.16416,-0.60475 -2.35479,-1.30791 -2.64583,-1.56257 -0.29104,-0.25466 -0.88636,-0.54229 -1.32292,-0.63916 -1.19729,-0.26571 -5.02764,-2.11379 -5.64129,-2.72186 -0.87624,-0.86823 -1.3149,-0.0366 -0.72517,1.37477 0.22733,0.54409 0.41334,1.19824 0.41334,1.4537 0,0.25545 0.16306,0.59981 0.36234,0.7652 0.19931,0.16539 0.57243,0.86458 0.82913,1.55374 0.25672,0.68916 0.68897,1.49883 0.96057,1.79924 0.27157,0.30044 0.49379,0.69424 0.49379,0.87514 0,0.18089 0.29766,0.86204 0.66146,1.51368 0.3638,0.65164 0.66146,1.29093 0.66146,1.42065 0,0.27374 1.33223,3.19061 2.98987,6.54614 0.6359,1.28725 1.24002,2.67451 1.34249,3.08276 0.18601,0.74113 1.56697,3.91735 2.02981,4.66855 0.47037,0.76345 1.05209,2.19892 0.93752,2.31349 -0.0636,0.0636 0.0448,0.57031 0.24093,1.12609 0.19608,0.55576 0.29432,1.07268 0.21828,1.14872 -0.076,0.076 0.24794,0.89045 0.71991,1.80985 0.85921,1.67373 2.23819,5.20727 2.61421,6.69872 0.11004,0.43657 0.39759,1.17478 0.63895,1.6405 0.24138,0.46572 0.43886,1.01669 0.43886,1.22439 0,0.20767 0.17275,0.52099 0.38391,0.69622 0.21114,0.17523 0.46178,0.87442 0.55695,1.55374 0.0952,0.67934 0.49982,1.83047 0.89926,2.55807 0.48763,0.88823 0.78632,1.92093 0.90914,3.14299 0.10059,1.00105 0.3597,2.16199 0.57579,2.57987 0.42105,0.81423 0.90995,2.95148 1.02205,4.46781 0.1469,1.98741 1.29787,7.79499 1.78094,8.9863 0.14632,0.3609 0.31988,1.10273 0.38566,1.64852 0.0658,0.54581 0.35353,1.72455 0.63942,2.61945 0.28588,0.8949 0.5198,1.96464 0.5198,2.37715 0,1.08662 0.65309,2.91843 2.11346,5.92791 0.70615,1.45521 1.71067,3.94396 2.23227,5.53059 1.06852,3.25027 1.88719,4.55834 2.04456,3.26681 z m 41.312815,-2.58435 c 0.37328,-0.29361 1.13345,-0.74737 1.68934,-1.00833 1.47698,-0.69342 2.72688,-1.47161 2.72881,-1.69899 0,-0.10914 0.1624,-0.19844 0.35883,-0.19844 0.19645,0 0.85026,-0.35719 1.45293,-0.79375 0.60264,-0.43656 1.19338,-0.79375 1.31273,-0.79375 0.11933,0 0.44778,-0.20836 0.72988,-0.46302 0.2821,-0.25466 0.9656,-0.70114 1.51887,-0.99219 0.55324,-0.29104 1.50574,-0.96186 2.11666,-1.49069 0.6109,-0.52882 2.00369,-1.62549 3.0951,-2.43705 1.0914,-0.81153 2.17294,-1.65877 2.40345,-1.88274 0.23047,-0.22397 0.53223,-0.40722 0.67056,-0.40722 0.22995,0 1.6071,-1.55893 3.27599,-3.7084 0.3638,-0.46858 0.93631,-1.19079 1.27222,-1.60491 0.96565,-1.19047 3.56846,-6.60416 3.80582,-7.91586 0.67532,-3.73224 0.776,-4.97946 0.48829,-6.04798 -0.30033,-1.1153 -1.06842,-1.54585 -1.06842,-0.59888 0,0.27328 -0.26225,0.67103 -0.58279,0.88386 -0.43373,0.28798 -0.57587,0.6322 -0.55563,1.34575 0.0201,0.70607 -0.0983,0.99862 -0.44902,1.10993 -0.44823,0.14227 -1.84306,2.67761 -1.85989,3.38069 -0.004,0.17793 -0.42024,1.03788 -0.92438,1.911 -0.50416,0.87313 -1.17139,2.15305 -1.48275,2.84427 -0.31136,0.69123 -0.66929,1.25678 -0.79539,1.25678 -0.12612,0 -0.22931,0.17253 -0.22931,0.3834 0,0.21088 -0.41799,0.70223 -0.9289,1.09189 -0.51089,0.38967 -1.30485,1.2887 -1.76435,1.99784 -0.4595,0.70916 -0.93448,1.28937 -1.05547,1.28937 -0.12103,0 -0.22003,0.14316 -0.22003,0.31818 0,0.35264 -3.16778,3.37408 -3.54515,3.38138 -0.13081,0.003 -0.61564,0.39359 -1.07739,0.86902 -0.46172,0.47543 -2.37474,1.63629 -4.25114,2.57969 -4.68217,2.35405 -8.5054,6.03697 -7.75451,7.46995 0.31742,0.60571 0.79121,0.58508 1.62504,-0.0708 z m -13.45493,-1.91357 c -0.29123,-2.31463 -0.41495,-3.14793 -0.65805,-4.43177 -0.3874,-2.04602 -1.27172,-5.77935 -1.62949,-6.87917 -0.16569,-0.50932 -0.32357,-1.10463 -0.35082,-1.32291 -0.0273,-0.21829 -0.18547,-0.73205 -0.35158,-1.14171 -0.1661,-0.40965 -0.30199,-1.10019 -0.30199,-1.5345 0,-0.43432 -0.16465,-1.11117 -0.36587,-1.50413 -0.20121,-0.39296 -0.44923,-1.3693 -0.55113,-2.16966 -0.17883,-1.40433 -0.45473,-2.69754 -0.93151,-4.36563 -0.47795,-1.67227 -0.71978,-8.29725 -0.48046,-13.16302 0.0698,-1.41883 0.0455,-2.57969 -0.054,-2.57969 -0.2667,0 -0.89429,0.81489 -1.32453,1.71979 -0.20754,0.43657 -0.70842,1.22759 -1.11305,1.75787 -0.40466,0.53025 -0.7357,1.0958 -0.7357,1.25677 0,0.16095 -0.12954,0.29266 -0.28784,0.29266 -0.33698,0 -0.15185,1.33193 0.56811,4.08696 0.26419,1.01092 0.41799,1.93889 0.34179,2.06216 -0.0762,0.12327 0.0584,0.52475 0.29919,0.89218 0.47472,0.72448 1.29402,4.22674 1.07262,4.58499 -0.0748,0.12099 0.0214,0.35049 0.21347,0.50998 0.19219,0.15952 0.57285,0.97669 0.8459,1.81592 0.27307,0.83926 0.63426,1.70452 0.80264,1.92281 0.1684,0.21828 0.37798,0.95149 0.46572,1.62941 0.0878,0.67788 0.39531,1.68992 0.68349,2.24895 0.31147,0.60426 0.58487,1.80737 0.67419,2.96694 0.0826,1.07277 0.22384,2.06959 0.31379,2.21517 0.09,0.14557 0.20405,1.23237 0.2535,2.41511 0.17563,4.1996 0.32704,4.95419 1.23622,6.1621 0.9398,1.24854 1.48048,1.4673 1.36539,0.55242 z m -21.27447,-1.35374 c 0.15264,-0.60153 0.38238,-1.33178 0.51049,-1.62282 0.12813,-0.29104 0.30514,-0.86109 0.39338,-1.26675 0.0882,-0.40566 0.70689,-1.83441 1.3748,-3.175 1.16784,-2.34402 1.50942,-3.54375 1.82388,-6.40617 0.0799,-0.7276 0.25305,-1.91823 0.3847,-2.64583 0.13163,-0.72761 0.23752,-3.31036 0.23527,-5.73948 -0.003,-2.42908 0.10689,-4.63174 0.24252,-4.89479 0.13562,-0.26302 0.32676,-1.10781 0.42476,-1.87727 0.098,-0.76946 0.51173,-2.13868 0.9194,-3.04271 1.21092,-2.68531 1.34355,-3.26673 1.08791,-4.7694 -0.59139,-3.47658 -1.04134,-4.91607 -2.34595,-7.50523 -0.42675,-0.84693 -0.84823,-1.71847 -0.93663,-1.93675 -0.0884,-0.21828 -0.39624,-0.75406 -0.68408,-1.19062 -0.28784,-0.43657 -0.60639,-0.97235 -0.70791,-1.19063 -0.88128,-1.89484 -8.962815,-10.80804 -9.401655,-10.36918 -0.19716,0.19717 0.69509,3.61339 1.36073,5.20981 0.2385,0.57197 0.894635,4.95495 0.871375,5.82083 -0.0493,1.83653 0.54864,8.44299 0.87334,9.6488 0.21423,0.79568 0.38954,1.94953 0.38954,2.56408 0,0.61452 0.11906,1.19091 0.26458,1.28087 0.14553,0.0899 0.26459,0.50665 0.26459,0.92604 0,0.41937 0.12869,0.84206 0.28601,0.93927 0.15732,0.0972 0.21984,0.44045 0.13896,0.76269 -0.0809,0.32226 0.0434,2.00591 0.27628,3.74145 0.23283,1.73556 0.46035,4.88196 0.50562,6.99201 0.0453,2.11005 0.14946,4.31271 0.23156,4.89479 0.0821,0.58208 0.20897,2.01083 0.28197,3.175 0.073,1.16417 0.19746,2.65245 0.27659,3.30729 0.21167,1.75168 0.2303,6.4861 0.0268,6.8154 -0.0966,0.15627 -0.25122,0.97759 -0.34364,1.82513 -0.20233,1.85568 0.48358,1.6651 0.97483,-0.27083 z m -26.467455,-0.26752 c 0,-0.20048 -0.17095,-0.50633 -0.37986,-0.67974 -0.20895,-0.17338 -0.45472,-0.65601 -0.54618,-1.07244 -0.0915,-0.41645 -0.34595,-0.90628 -0.56552,-1.08849 -0.21956,-0.18225 -0.63101,-0.75602 -0.91433,-1.27506 -1.47095,-2.69494 -2.20527,-3.9347 -2.78825,-4.70757 -0.35404,-0.46937 -0.61013,-0.90628 -0.56907,-0.97086 0.0411,-0.0646 -0.17399,-0.39497 -0.47792,-0.73412 -0.71572,-0.79869 -2.22554,-3.09149 -2.22554,-3.3797 0,-0.12266 -0.17751,-0.29112 -0.39444,-0.37436 -0.21696,-0.0833 -0.73292,-0.84013 -1.1466,-1.68196 -0.80595,-1.64015 -1.33241,-2.5885 -3.05284,-5.49934 -0.60206,-1.01864 -1.27325,-2.28322 -1.49154,-2.81019 -0.21828,-0.52694 -0.78382,-1.40933 -1.25677,-1.96085 -0.47294,-0.55153 -0.85989,-1.17012 -0.85989,-1.37467 0,-0.20455 -0.29766,-0.76213 -0.66146,-1.23912 -0.3638,-0.47697 -0.66146,-1.05519 -0.66146,-1.28495 0,-0.22977 -0.27813,-0.7543 -0.61809,-1.16565 -0.89959,-1.08855 -1.66053,-2.89756 -2.00459,-4.76578 -0.3097,-1.68138 -0.93046,-3.20228 -1.1489,-2.81485 -0.33097,0.587 -0.17449,12.77596 0.17489,13.62429 0.31223,0.75817 0.61597,2.34837 0.82529,4.32094 0.18335,1.72781 0.43293,3.25948 0.62515,3.83646 0.12118,0.3638 0.37296,1.13771 0.55949,1.71979 0.43932,1.37083 0.75197,1.75382 3.54193,4.33853 1.28182,1.18756 3.11621,3.01892 4.0764,4.06969 0.9602,1.05079 2.32249,2.2302 3.02731,2.62091 0.7048,0.39071 2.27727,1.37298 3.49438,2.18281 1.21709,0.80984 2.38303,1.47244 2.59094,1.47244 0.2079,0 0.46317,0.0851 0.56724,0.1892 0.17758,0.17759 1.64544,0.76814 2.08179,0.83754 0.10914,0.0175 0.19844,-0.13243 0.19844,-0.3329 z m 52.247435,-2.74712 c -0.0629,-1.06222 -0.23355,-2.154 -0.3792,-2.42617 -0.14568,-0.27218 -0.30213,-1.13345 -0.34772,-1.91395 -0.0456,-0.78049 -0.17005,-1.56017 -0.27662,-1.73262 -0.1066,-0.17248 -0.26329,-1.95678 -0.34819,-3.96515 -0.0972,-2.29878 -0.28747,-3.8966 -0.51364,-4.313 -0.83706,-1.54125 -1.66629,-3.94293 -1.65155,-4.78348 0.0246,-1.40814 -0.3433,-3.11539 -0.74295,-3.4471 -0.19942,-0.1655 -0.36256,-0.52443 -0.36256,-0.79767 0,-0.62642 -0.44651,-0.65013 -0.63537,-0.0337 -0.21281,0.69453 -0.28512,4.14494 -0.0934,4.45519 0.0919,0.14872 0.23296,1.63306 0.31345,3.29848 0.19735,4.08458 0.41955,6.04221 0.70591,6.21919 0.1312,0.0811 0.23854,0.59579 0.23854,1.14379 0,0.54801 0.28004,1.82092 0.6223,2.82866 0.34227,1.00775 0.7106,2.42335 0.81847,3.14576 0.10789,0.72242 0.36364,1.55258 0.56832,1.84481 0.20468,0.29223 0.37216,0.74091 0.37216,0.99706 0,0.65193 1.39282,2.11275 1.6373,1.71722 0.10401,-0.1683 0.13764,-1.17506 0.0747,-2.23729 z m -11.18459,-4.38134 c -0.13546,-0.17174 -0.2649,-0.98602 -0.2876,-1.80948 -0.0228,-0.82344 -0.28561,-2.19266 -0.58422,-3.04271 -0.29861,-0.85003 -0.76626,-2.37988 -1.03926,-3.39966 -0.273,-1.01981 -0.84503,-2.92481 -1.27122,-4.23333 -0.42616,-1.30855 -0.86709,-2.91494 -0.9798,-3.56979 -0.18717,-1.08733 -0.22175,-1.12995 -0.39841,-0.49146 -0.3211,1.16051 -0.3038,6.25483 0.0233,6.86609 0.16441,0.30719 0.34176,1.05238 0.39415,1.65601 0.0524,0.60362 0.11113,1.09749 0.13057,1.09749 0.0193,0 0.0659,0.23812 0.10314,0.52916 0.15443,1.20563 0.50715,2.41324 0.84796,2.90314 0.19971,0.28702 0.36309,0.70533 0.36309,0.92956 0,0.22424 0.41672,1.02648 0.92604,1.78279 0.50932,0.75629 0.92604,1.47236 0.92604,1.59123 0,0.98298 0.93157,1.4573 1.00925,0.51388 0.0458,-0.55587 -0.0276,-1.15118 -0.16308,-1.32292 z m 23.58074,1.16351 c 0.15684,-0.15685 0.42799,-0.28514 0.60254,-0.28514 0.69701,0 4.699,-3.02951 6.8889,-5.21486 0.46802,-0.46707 1.68206,-2.01488 2.69785,-3.43959 1.01576,-1.4247 2.09611,-2.79754 2.40075,-3.0508 0.30464,-0.25323 0.55388,-0.64019 0.55388,-0.8599 0,-0.21968 0.122,-0.39944 0.27112,-0.39944 0.14912,0 0.38769,-0.26789 0.53014,-0.59531 0.43508,-1.00007 2.14112,-4.02267 2.35098,-4.16531 0.10859,-0.0738 0.36579,-0.52112 0.57156,-0.99407 0.20576,-0.47294 0.46413,-0.85989 0.57412,-0.85989 0.10998,0 0.19999,-0.17444 0.19999,-0.38764 0,-0.39952 0.6435,-2.51249 1.05032,-3.44882 0.12645,-0.29104 0.56505,-1.24354 0.97465,-2.11667 0.4096,-0.87312 0.74766,-1.74133 0.75125,-1.92931 0.004,-0.18801 0.16061,-0.43704 0.34891,-0.55343 0.1883,-0.11636 0.31607,-0.31975 0.2839,-0.45194 -0.14341,-0.58906 0.42799,-2.47901 1.15255,-3.81219 0.79087,-1.45521 0.79087,-1.45521 0.46411,-3.70417 -1.11914,-7.7031 -2.72,-11.01431 -3.32058,-6.86834 -0.18412,1.27105 -1.84983,6.04504 -2.25338,6.45824 -0.13501,0.13824 -0.25021,0.49543 -0.25598,0.79375 -0.006,0.29832 -0.36293,1.19724 -0.7937,1.9976 -0.43074,0.80037 -0.78322,1.6855 -0.78324,1.96697 -3e-5,0.28149 -0.22641,0.99586 -0.50305,1.5875 -0.27665,0.59166 -0.70533,1.55199 -0.95264,2.13407 -0.24733,0.58209 -0.97348,2.15289 -1.61369,3.49073 -0.64021,1.33781 -1.16401,2.5582 -1.16401,2.71198 0,0.15375 -0.10887,0.27959 -0.24193,0.27959 -0.13306,0 -0.86315,1.25005 -1.62243,2.77791 -0.7593,1.52786 -1.60292,3.03437 -1.87476,3.34777 -0.2718,0.31343 -0.49421,0.73996 -0.49421,0.94787 0,0.42688 -1.57417,3.20739 -2.53876,4.48429 -0.34994,0.46323 -0.63624,0.94851 -0.63624,1.07836 0,0.12986 -0.29766,0.51576 -0.66146,0.85755 -0.3638,0.34176 -0.66146,0.76464 -0.66146,0.93974 0,0.1751 -0.17859,0.46659 -0.39687,0.64776 -0.21829,0.18113 -0.39688,0.50514 -0.39688,0.72001 0,0.6333 -0.82613,2.2249 -1.90479,3.66963 -0.55308,0.74084 -1.00563,1.48871 -1.00563,1.66196 0,0.17325 -0.17859,0.38351 -0.39687,0.46728 -0.21828,0.0838 -0.39688,0.30562 -0.39688,0.493 0,0.39796 1.72186,0.10334 2.20192,-0.37674 z m -5.82777,-1.807 c 0.32073,-0.69149 0.8422,-1.51609 1.15883,-1.83245 0.36848,-0.36817 0.52445,-0.77103 0.43338,-1.11927 -0.10705,-0.40939 0.0265,-0.60822 0.53899,-0.80312 0.57996,-0.2205 2.02382,-2.0407 2.02382,-2.55135 0,-0.0911 0.37346,-0.63714 0.82992,-1.21348 0.45646,-0.57634 1.42139,-2.20081 2.14429,-3.60995 0.72289,-1.40914 1.45931,-2.74066 1.63647,-2.95894 0.17714,-0.21828 0.89162,-1.5875 1.58774,-3.04271 0.69609,-1.45521 1.37242,-2.82443 1.50297,-3.04271 0.13057,-0.21828 0.3488,-0.6532 0.485,-0.96649 0.13621,-0.3133 0.37079,-0.64575 0.52134,-0.73877 0.15055,-0.0931 0.40285,-0.64874 0.56068,-1.23484 0.15782,-0.58613 0.70212,-1.8015 1.20954,-2.70081 0.50745,-0.89932 1.0173,-1.81372 1.13303,-2.032 1.17271,-2.21208 1.61819,-3.18538 1.61819,-3.53555 0,-0.22815 0.3483,-0.96404 0.77398,-1.63529 0.42569,-0.67122 0.85725,-1.71717 0.95904,-2.32428 0.10178,-0.60711 0.46786,-1.69169 0.81351,-2.41014 0.34565,-0.71845 0.62847,-1.51654 0.62847,-1.77348 0,-0.58587 0.50284,-1.76353 1.08542,-2.54206 0.5469,-0.73086 1.75305,-4.31552 1.93652,-5.75524 0.50334,-3.94994 0.50495,-3.91115 -0.21355,-5.15938 -0.37695,-0.65484 -0.68678,-1.35673 -0.68855,-1.55974 -0.008,-0.88982 -1.88804,-4.22328 -2.7555,-4.88495 -1.3456,-1.02632 -3.33309,-0.72808 -3.33309,0.50016 0,0.17791 -0.16981,0.4644 -0.37735,0.63665 -0.20754,0.17224 -0.58425,0.99049 -0.83717,1.81832 -0.25289,0.82785 -0.5465,1.62425 -0.65246,1.76977 -0.10594,0.14552 -0.45048,1.18965 -0.7656,2.32026 -0.31515,1.13065 -0.73369,2.3808 -0.93012,2.77813 -0.1964,0.39735 -0.47236,1.0201 -0.61322,1.3839 -0.14087,0.3638 -0.37388,0.95912 -0.51784,1.32292 -0.14394,0.3638 -0.283,0.74858 -0.30901,0.85508 -0.14827,0.60692 -0.92131,2.24512 -1.21957,2.5845 -0.19185,0.21828 -0.72062,1.34937 -1.17504,2.51354 -0.45442,1.16417 -1.11906,2.69319 -1.47693,3.39783 -0.35788,0.70467 -0.65069,1.55795 -0.65069,1.89619 0,0.33824 -0.1,0.65469 -0.22223,0.70318 -0.12221,0.0485 -0.41777,1.26715 -0.65682,2.70809 -0.23905,1.44095 -0.59476,2.81017 -0.79047,3.04271 -0.62691,0.74488 -1.08437,2.74122 -1.15795,5.05304 -0.0934,2.93444 -0.58915,5.08003 -2.23152,9.65729 -0.15664,0.43657 -0.31507,1.15094 -0.35203,1.5875 -0.0971,1.14597 -0.92202,4.66379 -1.25053,5.33257 -0.15401,0.31356 -0.20106,0.69787 -0.10454,0.85403 0.0965,0.15618 0,0.87156 -0.2123,1.58972 -0.21328,0.71818 -0.32581,1.36774 -0.25008,1.44349 0.0757,0.0757 0.0369,0.29442 -0.0862,0.48601 -0.26223,0.40793 -0.84579,2.99188 -0.8704,3.85408 -0.0281,0.98589 0.50025,0.6735 1.11966,-0.66196 z M 52.252365,224.2069 c -0.24746,-0.78002 -0.7304,-1.72241 -1.07325,-2.09418 -0.34285,-0.37177 -0.62336,-0.77748 -0.62336,-0.90159 0,-0.12412 -0.46223,-0.83199 -1.02714,-1.57303 -0.56494,-0.74105 -1.20745,-1.70453 -1.4278,-2.14109 -0.43238,-0.85659 -1.64385,-2.16818 -4.55652,-4.93321 -1.01864,-0.967 -2.83593,-2.76979 -4.03844,-4.00619 -2.2883,-2.35283 -4.03135,-3.82704 -4.03135,-3.4096 0,0.13512 0.17727,0.3928 0.39397,0.57261 0.21666,0.17983 0.34088,0.4128 0.27604,0.51773 -0.0648,0.10494 0.41272,0.71155 1.06124,1.34803 0.64855,0.63648 1.17917,1.26124 1.17917,1.38837 0,0.12711 0.4032,0.7274 0.89601,1.33398 0.49279,0.60656 1.11786,1.52006 1.38906,2.02999 0.90787,1.7072 1.77742,2.75815 4.84876,5.86026 3.38367,3.41759 5.037,5.29637 5.037,5.72381 0,0.30197 1.88981,1.95905 2.05071,1.79816 0.0527,-0.0527 -0.10666,-0.73401 -0.3541,-1.51405 z m 81.544545,-0.37566 c 0.31078,-0.9761 0.50363,-1.98154 1.18221,-6.16341 0.15004,-0.9247 0.5107,-2.28481 0.80147,-3.0225 0.29075,-0.73768 0.59899,-2.09447 0.68496,-3.01511 0.086,-0.92062 0.24616,-1.67383 0.35599,-1.67383 0.10983,0 0.26324,-0.50602 0.34092,-1.12448 0.30527,-2.43052 0.92416,-5.47836 2.16246,-10.64948 0.74147,-3.0964 0.97775,-3.93335 1.35573,-4.80251 0.19944,-0.45855 0.36261,-1.01706 0.36261,-1.24116 0,-0.22407 0.121,-0.4822 0.2689,-0.57359 0.1479,-0.0914 0.20338,-0.27218 0.12332,-0.40174 -0.0801,-0.12954 -0.04,-0.44874 0.0891,-0.70932 0.12904,-0.26057 0.45675,-0.95002 0.72826,-1.5321 0.27152,-0.58208 0.76528,-1.39491 1.09728,-1.80626 0.33198,-0.41135 0.6036,-0.96702 0.6036,-1.23483 0,-0.26782 0.23934,-1.04527 0.53186,-1.7277 0.29253,-0.68244 1.06101,-2.8166 1.70773,-4.74261 0.64675,-1.92598 1.71709,-4.57491 2.37858,-5.88647 1.0746,-2.13075 1.39372,-2.99067 1.10985,-2.99067 -0.38098,0 -1.75927,0.62421 -1.75927,0.79674 0,0.11869 -0.48676,0.57378 -1.08167,1.01126 -1.80343,1.32628 -5.7975,5.30802 -5.7975,5.77967 -3e-5,0.11964 -0.40291,0.53898 -0.89532,0.93189 -1.69897,1.35562 -3.07343,3.77883 -3.07343,5.41858 0,0.79336 -0.13282,1.69064 -0.29514,1.99396 -0.16232,0.30329 -0.33547,1.09915 -0.38476,1.76852 -0.14491,1.96864 -0.50178,3.00363 -1.52826,4.43241 -0.53176,0.74017 -0.96684,1.49968 -0.96684,1.6878 0,0.18812 -0.31398,0.87778 -0.69771,1.53258 -0.7381,1.25946 -2.31931,6.68297 -2.79056,9.57159 -0.45701,2.8013 -0.40568,5.78035 0.12312,7.14375 0.57321,1.47793 1.07098,3.83238 1.12424,5.31759 0.0344,0.96015 0.18449,1.97348 0.33345,2.25185 0.14899,0.27836 0.3175,1.1258 0.37447,1.88314 0.057,0.75737 0.18708,1.46053 0.28913,1.56258 0.10203,0.10202 0.18553,0.47326 0.18553,0.82494 0,0.95634 0.57338,0.58971 0.95573,-0.61108 z m -7.58479,-21.1509 c 0.80698,-3.30258 1.71384,-5.68854 2.16212,-5.68854 0.11679,0 0.35505,-0.47625 0.52944,-1.05833 0.17441,-0.58208 0.40404,-1.05833 0.51035,-1.05833 0.10628,0 0.27204,-0.42008 0.36838,-0.93348 0.0963,-0.5134 0.40722,-1.66 0.69091,-2.54799 0.85291,-2.66991 0.56589,-4.49167 -0.41027,-2.60395 -0.22577,0.43656 -0.51289,0.79375 -0.63812,0.79375 -0.1252,0 -0.4182,0.40161 -0.65114,0.89246 -0.2454,0.51713 -0.75882,1.0314 -1.22079,1.22275 -0.43846,0.18161 -0.79724,0.48178 -0.79724,0.66701 0,0.18524 -0.38208,0.73634 -0.84905,1.22468 -1.39102,1.45465 -1.81493,2.41726 -1.51688,3.44451 0.14092,0.48561 0.18669,1.35921 0.10171,1.9413 -0.085,0.58208 0.0295,1.93757 0.25431,3.0122 0.22485,1.07463 0.3192,2.11399 0.20966,2.30971 -0.10954,0.19571 -0.15166,0.85365 -0.0936,1.46206 0.14259,1.49532 0.34526,1.03304 1.35025,-3.07981 z"
       id="path827"
       inkscape:connector-curvature="0" />
  </g>
</svg>
